<svg width="95" height="30" viewBox="0 0 95 30" fill="none" xmlns="http://www.w3.org/2000/svg">
<path d="M0 2H17.7346C20.3718 2.27652 23.3358 2.88636 24.9812 5.18182C26.8888 7.70833 26.1364 11.7841 23.18 13.1667C25.0116 13.8447 26.6228 15.2879 27.208 17.1818C27.74 19.2045 27.5234 21.5417 26.1592 23.2083C24.263 25.6818 21.0862 26.6477 18.107 27H0V25.2386C2.4396 25.2614 4.8754 25.2386 7.315 25.2576C7.1288 24.5758 6.9464 23.8939 6.764 23.2121C4.5068 23.2121 2.2534 23.2121 0 23.2121V21.3258C2.0558 21.322 4.1154 21.3258 6.1712 21.3258C5.9964 20.6667 5.8102 20.0114 5.6278 19.3561C3.7506 19.3598 1.8772 19.3598 0 19.3598V17.572C1.672 17.572 3.344 17.572 5.0122 17.572C4.845 16.9091 4.655 16.2576 4.484 15.5947C2.9906 15.5871 1.4934 15.5871 0 15.5909V13.7424C1.292 13.7424 2.584 13.7424 3.8798 13.7348C3.7012 13.0758 3.515 12.4205 3.3364 11.7614C2.223 11.7538 1.1134 11.75 0 11.75V9.85985C0.9196 9.86364 1.843 9.875 2.7626 9.89015C2.5726 9.23106 2.3826 8.57576 2.1888 7.92045C1.4592 7.91667 0.7296 7.91288 0 7.91288V6.09091C0.5434 6.13258 1.0868 6.16667 1.634 6.19318C1.444 5.46591 1.235 4.74242 1.0298 4.01894C0.7752 4.03409 0.2584 4.06061 0 4.07576V2ZM9.88 8.6553C9.88 9.57955 9.88 10.5038 9.88 11.428C12.0194 11.2689 14.2348 11.7083 16.3058 10.9924C16.5224 10.5303 16.6782 10.0455 16.7808 9.54924C16.4958 9.31439 16.2108 9.07955 15.9296 8.8447C13.9232 8.55682 11.8978 8.7197 9.88 8.6553ZM9.88 16.7727C9.88 17.9621 9.88 19.1553 9.88 20.3447C11.8978 20.2614 13.927 20.4508 15.9334 20.2197C16.91 20.1932 17.822 19.2955 17.6206 18.2841C17.575 17.303 16.4882 16.8598 15.6408 16.7992C13.7218 16.7424 11.8028 16.7879 9.88 16.7727Z" fill="#EDD0C6"/>
<path d="M28.959 2H42.4566C43.8322 6.31818 45.014 10.7008 46.3098 15.0455C47.674 10.7197 48.7988 6.31818 50.1972 2H63.6872C63.6568 10.3333 63.6834 18.6667 63.6758 27H54.3392C54.3012 22.625 54.4152 18.2424 54.2708 13.8674C52.842 18.2424 51.4246 22.6212 50.0034 27H42.696C41.2558 22.6818 39.7396 18.375 38.5312 13.9848C38.193 18.3106 38.4666 22.6629 38.3792 27H28.959C28.959 18.6667 28.959 10.3333 28.959 2Z" fill="#EDD0C6"/>
<path d="M66.2901 2H84.9747C87.7639 2.3447 90.8381 3.17803 92.5329 5.5947C94.7787 8.76136 93.5589 13.6818 90.0781 15.428C92.4037 16.6174 93.4829 19.2879 93.6121 21.7689C93.8857 23.4621 93.5779 25.5379 94.9991 26.7917V27H84.7733C84.1235 25.1023 84.0475 23.0947 83.7321 21.1364C83.5535 20.0189 82.8163 18.947 81.6497 18.7273C79.8105 18.553 77.9599 18.697 76.1169 18.6553C76.1587 21.4356 76.1207 24.2197 76.1435 27H66.2559C66.3357 18.6667 66.2673 10.3333 66.2901 2ZM76.1283 12.5455C78.5755 12.4015 81.2393 13.0341 83.4889 11.7879C84.0931 10.7765 83.8461 9.33712 82.5959 8.97727C80.5021 8.45833 78.3133 8.77652 76.1777 8.63636C76.1055 9.93939 76.1397 11.2424 76.1283 12.5455Z" fill="#EDD0C6"/>
</svg>
