<svg width="129" height="30" viewBox="0 0 129 30" fill="none" xmlns="http://www.w3.org/2000/svg">
<g clip-path="url(#clip0_2113_4806)">
<path d="M128.886 13.4852C129.35 16.7531 128.402 20.0889 126.339 22.6508C124.927 24.4024 123.126 25.7465 120.512 26.3117C114.315 27.6509 108.628 24.7396 106.88 19.0336C102.626 4.34377 122.472 -1.96883 128.179 11.127C128.383 11.6098 128.53 11.719 128.741 12.6797C128.801 12.9514 128.849 13.2207 128.888 13.4876L128.886 13.4852ZM110.913 15.3557C110.898 19.5236 113.673 22.4034 117.67 22.3742C126.469 22.3645 126.462 8.36375 117.67 8.33464C113.676 8.30067 110.925 11.161 110.91 15.3557H110.913Z" fill="#EDD0C6"/>
<path d="M0 4.0182C1.50056 3.98908 4.46801 4.00364 4.46801 4.00364C4.46801 4.00364 4.49446 6.91248 4.48244 8.7854C4.4608 11.9126 4.39346 15.0471 4.42954 18.1645C4.44637 19.7439 4.44877 21.3645 4.44877 21.3645C4.44877 21.3645 5.68 21.3936 7.74808 21.3548C8.81098 21.3354 9.8859 21.3815 10.9536 21.35C11.687 21.3281 13.0602 21.3839 13.0602 21.3839C13.0602 21.3839 13.0505 22.6988 13.0602 23.4631C13.0674 24.0623 13.0602 25.4864 13.0602 25.4864C13.0602 25.4864 11.8025 25.4573 10.9031 25.4476C7.26954 25.4088 3.63357 25.467 0 25.4864V4.0182H0Z" fill="#EDD0C6"/>
<path d="M36.3069 15.2197C36.3382 22.0272 31.7788 26.6101 25.0215 26.5615C10.2034 26.5543 10.0952 4.16658 24.8964 4.00161C31.6778 3.90214 36.2781 8.42431 36.3069 15.2197V15.2197ZM31.7115 15.5036C31.786 11.1585 29.2634 8.3297 25.2643 8.27632C16.4534 7.89786 16.2081 22.1461 24.8315 22.3014C28.8907 22.4421 31.6393 19.7249 31.7139 15.5036H31.7115Z" fill="#EDD0C6"/>
<path d="M58.5371 24.3983C58.2197 24.738 56.9885 25.9001 51.9121 26.5211C42.6322 27.5279 36.4111 20.0339 39.292 11.3389C40.7997 6.78514 44.1496 4.6308 48.6488 4.0995C50.45 3.886 55.8053 4.08252 55.8053 4.08252C55.8053 4.08252 55.8486 4.65507 55.8318 6.1107C55.815 7.52994 55.8582 8.19469 55.8582 8.19469C55.8582 8.19469 51.3325 8.28202 49.9378 8.27475C47.0593 8.26019 44.9527 9.546 43.861 12.2219C42.6586 15.1648 43.0121 18.0032 45.1595 20.3978C47.218 22.6904 49.9137 22.5909 52.6335 21.9941C53.8214 21.7321 54.3889 21.3561 54.3889 21.3561L54.3938 13.5369C54.3938 13.5369 55.411 13.4738 56.5652 13.4641C57.7628 13.4544 58.6213 13.4568 58.6213 13.4568C58.6213 13.4568 58.5419 23.1004 58.5419 24.4008L58.5371 24.3983Z" fill="#EDD0C6"/>
<path d="M76.6681 4.2808C78.3587 3.86837 80.1358 3.91689 81.8119 4.3827C82.0067 4.43607 82.2015 4.49915 82.3962 4.56708C83.375 4.92128 85.2146 6.34538 85.2146 6.34538L82.5429 9.39008C82.5429 9.39008 81.4247 8.88546 81.0159 8.6841C80.2873 8.32262 79.3711 8.09214 78.5318 8.06788C77.2573 8.03149 76.103 8.6938 75.7664 10.0354C75.4008 11.4862 76.4349 12.2213 77.5868 12.6871C78.7795 13.1675 80.0372 13.4877 81.2299 13.9632C83.4591 14.8511 85.0823 16.2146 85.2002 18.9148C85.3276 21.7775 84.4571 24.0847 81.8479 25.3948C78.6593 26.9936 75.4513 26.8286 72.2723 25.1983C71.3152 24.7082 70.1777 23.7038 70.1777 23.7038L73.3616 20.3826C73.3616 20.3826 73.8017 20.8726 74.4534 21.2681C75.61 21.9668 76.7908 22.3331 78.1206 22.1924C79.3687 22.059 80.4652 21.6514 80.7201 20.2224C80.9534 18.9148 80.1045 18.2137 79.0897 17.7236C78.3202 17.35 77.5002 17.0783 76.6922 16.792C72.0943 15.1544 70.5336 13.2063 71.0819 9.76612C71.5148 7.05136 73.5107 5.04501 76.6657 4.27838L76.6681 4.2808Z" fill="#EDD0C6"/>
<path d="M98.1764 4.0028C99.8188 3.96155 101.358 4.37884 102.82 5.09938C103.537 5.45115 105.256 6.54531 105.256 6.54531C105.256 6.54531 103.991 7.92331 103.666 8.26296C103.008 8.95681 102.178 9.73315 102.178 9.73315C102.178 9.73315 101.382 9.36439 100.752 9.03202C97.6979 7.41626 94.8458 8.28964 93.0831 10.8273C89.2524 16.3053 94.3673 25.784 101.206 21.0798C101.759 20.7014 102.356 20.3544 102.356 20.3544C102.356 20.3544 103.21 20.9949 104.183 21.7155C104.443 21.9095 105.91 23.0377 105.91 23.0377C105.91 23.0377 104.265 24.5903 103.626 25.0343C100.216 27.4021 94.7785 26.98 91.2171 24.2337C83.5363 18.0036 87.1074 3.91546 98.1764 4.0028Z" fill="#EDD0C6"/>
<path d="M63.1079 14.6916C63.1079 11.7682 63.1632 8.84484 63.0886 5.92386C63.0694 5.19605 63.0886 4 63.0886 4C63.0886 4 64.5194 4.00243 65.3034 4C66.0056 4 67.4869 4 67.4869 4C67.4869 4 67.4941 5.12569 67.4869 5.95298C67.4292 11.7998 67.4292 17.6466 67.4869 23.491C67.4941 24.1217 67.4917 25.4148 67.4917 25.4148C67.4917 25.4148 66.133 25.4051 65.2745 25.4148C64.493 25.4245 63.0838 25.4148 63.0838 25.4148C63.0838 25.4148 63.0742 24.1994 63.091 23.4594C63.1632 20.5384 63.1127 17.6126 63.1127 14.6916H63.1079Z" fill="#EDD0C6"/>
</g>
<defs>
<clipPath id="clip0_2113_4806">
<rect width="129" height="30" fill="white"/>
</clipPath>
</defs>
</svg>
