<svg width="109" height="30" viewBox="0 0 109 30" fill="none" xmlns="http://www.w3.org/2000/svg">
<g clip-path="url(#clip0_2113_4814)">
<path d="M15.3397 11.8063C16.2184 10.9583 16.9735 9.9299 18.3393 10.362C19.1434 10.6001 19.6328 11.157 19.7913 11.9612C20.057 13.1467 19.2529 13.87 18.4581 14.6164C18.302 14.762 18.323 14.8613 18.4628 15C19.1737 15.7071 19.8822 16.4143 20.5814 17.133C21.2083 17.7754 21.3365 18.5472 21.0359 19.363C20.5767 20.7957 18.5793 21.1585 17.5818 20.0539C16.8826 19.3491 16.1788 18.6489 15.4866 17.9395C15.3491 17.7985 15.2675 17.8262 15.1486 17.9464C14.6732 18.4294 14.1977 18.91 13.7106 19.3815C13.5708 19.5178 13.5731 19.6056 13.7106 19.742C14.2933 20.3151 14.8643 20.8974 15.44 21.4774C16.6892 22.7322 17.9454 23.9824 19.19 25.2465C20.332 26.4066 19.8845 28.2969 18.3579 28.7614C17.5655 29.0017 16.8617 28.8168 16.2813 28.2391C14.3772 26.3557 12.5173 24.4261 10.5992 22.5589C8.81157 24.2736 7.11253 26.0322 5.36454 27.7792C5.18275 27.9641 5.00795 28.1582 4.81217 28.3269C3.94051 29.0733 2.71225 29.0271 1.94314 28.2252C1.15072 27.4002 1.14839 26.1108 1.95013 25.2973C3.78436 23.444 5.62091 21.593 7.46446 19.7512C7.61362 19.6033 7.60663 19.5155 7.4598 19.3722C6.98201 18.9054 6.51122 18.4294 6.04975 17.9487C5.90991 17.8054 5.81902 17.8216 5.68617 17.9556C5.00329 18.6512 4.31574 19.3399 3.6282 20.0285C3.02689 20.6293 2.31371 20.8581 1.48866 20.6062C0.665941 20.3543 0.178835 19.7789 0.034334 18.9447C-0.0891906 18.2353 0.122899 17.6113 0.633312 17.096C1.31852 16.4027 1.99907 15.7071 2.69827 15.03C2.89405 14.8406 2.86841 14.7342 2.68662 14.5702C2.41859 14.3275 2.16222 14.071 1.92216 13.8006C0.712554 12.5689 1.54693 10.362 3.29026 10.2765C4.32274 10.1356 5.02659 10.986 5.67218 11.6561C5.81435 11.8063 5.90991 11.8063 6.05441 11.6561C7.03096 10.6532 8.02148 9.66184 8.99803 8.65891C9.9233 7.66292 11.3636 7.71607 12.2097 8.69127C13.2655 9.71499 14.256 10.8196 15.3397 11.8087V11.8063ZM10.6481 16.5298C11.1632 16.0191 11.7156 15.4737 12.2563 14.9168C12.2936 14.8775 12.2609 14.7111 12.2073 14.6534C11.7109 14.1265 11.1166 13.595 10.6901 13.0242C10.0492 13.6366 9.48513 14.1704 8.92811 14.7135C8.89315 14.7481 8.90014 14.8821 8.93743 14.9191C9.49213 15.4506 10.0538 15.9752 10.6458 16.5298H10.6481Z" fill="#EDD0C6"/>
<path d="M45.9983 14.2768C46.1289 16.9574 49.6202 18.0389 51.3798 16.3081C51.4894 16.1971 51.5966 16.0747 51.6758 15.9429C51.832 15.6841 52.0534 15.5825 52.3494 15.5871C52.946 15.594 53.5427 15.5871 54.137 15.5894C54.6777 15.5894 54.9014 15.9014 54.715 16.4074C54.1323 17.9835 53.0229 19.0719 51.4358 19.5849C47.8256 20.9391 43.5115 18.8154 42.8636 14.9285C42.0059 11.2726 44.3156 7.14076 48.3034 6.8727C50.063 6.71325 51.6968 7.07144 53.0649 8.25461C54.5215 9.49094 54.99 11.3743 54.9923 13.2069C55.011 13.8585 54.5798 14.2745 53.9132 14.2768C51.2726 14.2814 48.6413 14.2768 45.9983 14.2768ZM51.7131 11.9821C51.6851 10.6025 50.6037 9.60879 49.2589 9.53485C47.6275 9.37308 46.3852 10.2951 46.0333 11.9821H51.7108H51.7131Z" fill="#EDD0C6"/>
<path d="M74.5463 14.2767C74.6605 14.6696 74.7187 15.0255 74.8632 15.3444C75.8235 17.4912 79.0864 17.7893 80.3543 15.8574C80.4475 15.7164 80.6899 15.6101 80.8693 15.6009C81.5196 15.5708 82.1722 15.5801 82.8247 15.5916C83.2629 15.5986 83.4843 15.9151 83.3398 16.3265C82.7595 17.9857 81.5988 19.0996 79.9347 19.6218C76.2523 20.9413 71.9546 18.672 71.4232 14.7227C70.717 11.2448 72.8519 7.33249 76.5879 6.9096C78.5014 6.63923 80.303 7.01128 81.7783 8.36084C83.1277 9.57868 83.5682 11.3627 83.6079 13.112C83.6288 13.8723 83.2116 14.279 82.4518 14.279C79.8089 14.279 77.1939 14.279 74.5463 14.279V14.2767ZM80.2983 11.9843C80.2331 8.65201 74.9145 8.75138 74.6884 11.9843H80.2983Z" fill="#EDD0C6"/>
<path d="M63.2438 10.9489C64.6119 9.66404 65.747 8.48779 67.0451 7.19369C67.7001 6.55127 68.7092 6.53509 69.3688 7.1313C70.0354 7.73213 70.1263 8.76279 69.5459 9.46068C69.2453 9.82349 68.8957 10.147 68.5624 10.4821C67.6231 11.4365 66.6652 12.3585 65.7376 13.3268C66.9216 14.6117 68.2035 15.8087 69.4201 17.0635C70.336 17.9879 69.9538 19.5547 68.7209 19.899C68.0963 20.0723 67.5206 19.9521 67.0498 19.4784C65.8961 18.3229 64.7448 17.1652 63.5958 16.0051C63.5189 15.9266 63.4699 15.8226 63.3814 15.6932C62.0902 16.9618 60.9155 18.1704 59.6453 19.4345C57.9393 21.0406 55.6785 18.7227 57.2471 17.0473C58.3774 15.9081 59.5101 14.7734 60.6428 13.6341C60.9412 13.3337 60.9365 13.336 60.6428 13.0379C59.5101 11.901 58.3751 10.7663 57.2447 9.62706C55.9419 8.32141 57.289 6.14686 59.0277 6.82395C59.2444 6.91408 59.4519 7.05966 59.6197 7.22374C60.7803 8.37225 61.9294 9.53232 63.0784 10.6901C63.1483 10.7617 63.1902 10.8611 63.2415 10.9443L63.2438 10.9489Z" fill="#EDD0C6"/>
<path d="M32.5214 19.9755H29.2608C29.2002 17.3711 29.2422 14.7598 29.2492 12.1531C29.2748 9.69667 31.377 7.34187 33.8149 6.92822C37.0848 6.37592 39.8047 8.52736 40.364 11.3536C40.4433 11.758 40.4969 12.1739 40.4992 12.5876C40.5132 15.051 40.5039 17.5098 40.5062 19.9732H37.1827C37.1827 17.452 37.192 14.9308 37.1734 12.4097C37.1734 11.1225 36.5581 9.9578 35.1411 9.90465C33.2346 9.77755 32.4445 11.208 32.5214 12.9342C32.5167 15.2844 32.5214 17.623 32.5214 19.9755V19.9755Z" fill="#EDD0C6"/>
<path d="M103.828 6.85156C105.343 6.87005 106.581 7.14274 107.578 8.06016C107.893 8.35133 108.165 8.70721 108.387 9.07464C108.764 9.69858 108.443 10.4334 107.739 10.6345C107.084 10.8355 106.196 11.062 105.812 10.3133C105.301 9.39123 103.998 9.14166 103.138 9.53451C102.542 9.80719 102.246 10.3456 102.397 10.891C102.53 11.3647 102.898 11.5912 103.343 11.6952C104.038 11.8593 104.742 11.9887 105.439 12.1481C106.522 12.3954 107.511 12.8252 108.226 13.7103C109.629 15.4481 109.051 18.1033 107.023 19.2749C106.189 19.7579 105.28 19.9474 104.327 19.9659C103.075 19.9913 101.882 19.7856 100.817 19.0831C100.216 18.688 99.7448 18.1703 99.4046 17.5417C99.0247 16.8439 99.3719 16.0859 100.153 15.9172C100.442 15.8548 100.733 15.7808 101.027 15.7531C101.465 15.7138 101.821 15.901 102.017 16.2892C102.57 17.3754 103.914 17.6157 104.868 17.3315C106.031 17.038 106.138 15.4458 104.938 15.1199C104.276 14.9143 103.593 14.771 102.915 14.6162C102.185 14.4475 101.479 14.2279 100.852 13.8073C99.0316 12.5872 98.7473 10.0776 100.253 8.40448C101.253 7.29294 102.551 6.85387 103.828 6.85387V6.85156Z" fill="#EDD0C6"/>
<path d="M86.1582 10.8289C86.1582 8.21295 86.1582 5.59702 86.1582 2.98109C86.1629 1.57607 87.2839 1.66851 88.3677 1.69624C89.0622 1.71241 89.5353 2.18846 89.5377 2.8771C89.5377 8.17367 89.5377 13.4679 89.5377 18.7645C89.54 20.0886 88.2092 20.0493 87.221 19.9592C86.5241 19.8783 86.1605 19.4277 86.1605 18.7321C86.1605 16.0977 86.1605 13.4633 86.1605 10.8289H86.1582Z" fill="#EDD0C6"/>
<path d="M96.4162 13.4103C96.4162 15.2036 96.4162 16.9945 96.4162 18.7878C96.4162 19.488 95.9571 19.9502 95.2532 19.9617C94.9362 19.9663 94.6193 19.9617 94.3023 19.9617C93.4772 19.9733 93.0041 19.4187 93.0367 18.6168C93.0367 15.1435 93.0367 11.6679 93.0391 8.19466C92.9971 7.53606 93.4073 6.8659 94.1368 6.85666C95.1297 6.83586 96.3533 6.66254 96.4139 8.00517C96.4139 9.80767 96.4139 11.6079 96.4139 13.4103H96.4162Z" fill="#EDD0C6"/>
<path d="M13.3381 2.7637C13.3381 4.30275 12.1238 5.51828 10.5902 5.51597C6.91244 5.34727 6.95439 0.152388 10.6065 -0.00244141C12.1471 -0.00244141 13.3404 1.20616 13.3404 2.76139L13.3381 2.7637ZM11.7998 2.77987C11.7998 2.11202 11.2475 1.53661 10.5972 1.5343C9.95394 1.52968 9.39459 2.11202 9.39692 2.77987C9.39925 3.41306 9.94928 3.96767 10.5832 3.98154C11.2148 3.9954 11.7975 3.41999 11.7998 2.77987Z" fill="#EDD0C6"/>
<path d="M92.916 3.51252C92.916 2.47725 93.7084 1.69154 94.7502 1.69385C97.2021 1.74931 97.1648 5.28498 94.7456 5.34737C93.7201 5.34506 92.916 4.53856 92.916 3.51252Z" fill="#EDD0C6"/>
<path d="M39.8645 28.7635C39.72 28.8674 39.6081 28.9506 39.4683 29.0523C39.368 28.9275 39.2608 28.8166 39.1769 28.6872C39.072 28.5277 38.9742 28.5231 38.811 28.6179C38.2563 28.9368 37.6527 29.0246 37.0327 28.8929C34.3548 28.232 35.2754 24.5854 37.5828 24.0423C38.8833 23.7026 40.0835 24.3751 40.3143 25.6183C40.4704 26.4618 40.2234 27.2244 39.685 27.8946C39.4123 28.2343 39.41 28.232 39.692 28.5532C39.7456 28.6132 39.7945 28.678 39.8621 28.7635H39.8645ZM39.0814 27.8229C39.6524 27.1944 39.9367 26.5034 39.7759 25.6992C39.5615 24.6408 38.5104 24.1371 37.4546 24.5807C36.5293 24.969 36.0748 25.7085 35.949 26.679C35.7788 28.2181 37.5385 29.0107 38.6875 28.1002C38.4498 27.8137 38.212 27.5248 37.9627 27.2221C38.1095 27.1181 38.233 27.028 38.3682 26.9309C38.6129 27.236 38.8343 27.5156 39.0814 27.8252V27.8229Z" fill="#EDD0C6"/>
<path d="M91.2413 28.8722C91.4418 28.0126 91.7727 27.2454 91.838 26.3996C91.8053 25.8265 91.3159 25.5376 90.7565 25.7456C90.2555 25.9305 89.9688 26.3233 89.8243 26.8132C89.6635 27.3609 89.5236 27.9155 89.3791 28.4678C89.2673 28.893 89.2719 28.893 88.7848 28.8399C88.9666 28.0727 89.2183 27.3216 89.3442 26.5475C89.4351 25.8935 88.8874 25.5052 88.2651 25.7479C87.736 25.9559 87.461 26.3834 87.3142 26.9033C87.1254 27.5527 86.9832 28.2067 86.7805 28.8537H86.291C86.5823 27.7769 86.8574 26.7393 87.1487 25.6693C87.2559 25.2788 87.2652 25.2742 87.7104 25.3597C87.6894 25.4891 87.6684 25.6208 87.6335 25.8403C88.3233 25.0916 89.4584 24.916 89.8383 26.0183C90.2951 25.4544 90.8871 25.0916 91.6259 25.2857C92.1363 25.4105 92.4789 25.9212 92.3647 26.4273C92.1922 27.1899 91.9848 27.9456 91.7844 28.7012C91.7005 29.0178 91.4511 28.8006 91.2437 28.8699L91.2413 28.8722Z" fill="#EDD0C6"/>
<path d="M93.3512 28.0888C93.2067 28.6226 93.0738 29.1079 92.9433 29.5955C92.8703 29.8651 92.6815 29.983 92.377 29.9491C92.6753 28.5002 93.1437 27.0743 93.505 25.637C93.5982 25.288 93.6542 25.2649 94.062 25.3712C94.0341 25.5168 94.0061 25.6647 93.9711 25.8496C94.1855 25.6971 94.3557 25.5515 94.5468 25.4429C95.3998 24.9599 96.423 25.3273 96.6584 26.2378C97.0243 27.659 95.9196 29.0964 94.4862 28.9254C94.0737 28.8768 93.8033 28.6966 93.3558 28.0911L93.3512 28.0888ZM94.7496 28.5048C95.7284 28.4378 96.2831 27.421 96.2016 26.6931C96.141 25.8704 95.4627 25.4729 94.6843 25.7641C93.3745 26.2332 92.955 28.4285 94.7496 28.5071V28.5048Z" fill="#EDD0C6"/>
<path d="M44.0355 28.0149C44.1777 27.9017 44.3269 27.7884 44.469 27.6729C44.8373 28.4193 45.7812 28.5995 46.5293 28.3869C47.1679 28.209 47.6341 27.4464 46.9535 26.9935C46.506 26.7185 45.9956 26.5452 45.5295 26.3002C44.6695 25.8473 44.8466 24.8212 45.4176 24.3822C46.2543 23.7397 47.6877 23.8715 48.4545 24.745C48.3006 24.812 48.1701 24.9021 48.0396 25.02C47.6364 24.6109 47.1493 24.3822 46.5829 24.4446C45.7905 24.5 44.9561 25.2326 45.8371 25.8658C46.266 26.1176 46.7577 26.2678 47.1936 26.5082C47.9324 26.938 48.0419 27.7561 47.4546 28.38C46.6342 29.2535 44.6904 29.0594 44.0332 28.0172L44.0355 28.0149Z" fill="#EDD0C6"/>
<path d="M81.2845 27.8095C81.3917 27.9274 81.4896 28.0337 81.5991 28.1538C80.1192 29.7391 77.1989 28.8448 77.7046 26.4599C77.9866 24.9625 79.2405 23.9064 80.6948 23.9642C81.422 23.9919 81.9953 24.3039 82.3846 24.9717C82.2424 25.0618 82.1072 25.145 81.986 25.2236C80.6039 23.2963 77.8305 25.182 78.2407 27.2803C78.5273 28.7639 80.3569 28.7593 81.2868 27.8095H81.2845Z" fill="#EDD0C6"/>
<path d="M99.4605 28.8746C99.5024 28.6874 99.5327 28.5557 99.5793 28.357C99.1155 28.7475 98.6424 29.0086 98.0271 28.9185C97.6356 28.8677 97.3093 28.6943 97.1741 28.3015C97.0296 27.8855 97.1065 27.4904 97.4095 27.1692C98.0877 26.4459 99.1039 26.707 99.9615 26.8456C100.246 26.2517 99.9336 25.7318 99.26 25.7156C98.8755 25.7064 98.4886 25.7757 98.0854 25.8127C97.9339 25.5007 97.9432 25.4221 98.3184 25.3759C99.3299 25.2188 100.819 25.2072 100.526 26.6423C100.362 27.3332 100.169 28.0149 99.9825 28.699C99.9009 28.9971 99.6632 28.8076 99.4558 28.8746H99.4605ZM99.8823 27.2408C99.6259 27.0998 98.8685 26.9635 98.5282 27.0582C98.2718 27.1299 97.9921 27.2454 97.808 27.4257C97.4328 27.7931 97.6216 28.3639 98.1273 28.5141C98.8848 28.7383 99.7425 28.1166 99.8846 27.2408H99.8823Z" fill="#EDD0C6"/>
<path d="M30.1653 25.8148C30.149 25.72 30.1304 25.6045 30.1094 25.4705C31.0486 25.0799 32.9201 25.1516 32.6451 26.5589C32.468 27.3284 32.2582 28.0887 32.0625 28.8513H31.5963C31.6127 28.708 31.6266 28.5786 31.6476 28.3891C31.1768 28.7843 30.6827 29.0246 30.0744 28.9114C29.6735 28.8467 29.3426 28.6364 29.2564 28.2181C29.1585 27.7467 29.2657 27.3145 29.6852 27.0118C30.3261 26.545 31.1372 26.6606 31.8597 26.8246C32.0392 26.8639 32.1301 26.8454 32.158 26.6351C32.3072 25.4196 30.9717 25.7339 30.163 25.8148H30.1653ZM31.037 27.0372C30.3378 27.0049 29.6339 27.3099 29.7411 28.0309C29.8041 28.3129 30.0022 28.4584 30.2772 28.5278C30.9671 28.7011 31.8853 28.0771 31.9716 27.3608C31.9786 27.2984 31.8853 27.1782 31.8224 27.1643C31.5241 27.0996 31.2211 27.065 31.0346 27.0372H31.037Z" fill="#EDD0C6"/>
<path d="M64.9978 28.9302C63.9141 28.9302 63.2568 28.1468 63.4083 27.0375C63.6857 24.8977 67.2259 24.4332 67.1164 27.0052C67.0232 28.0728 66.0769 28.9325 64.9978 28.9325V28.9302ZM66.5943 26.8365C66.5943 26.201 66.2774 25.8035 65.6854 25.6995C64.8883 25.5586 64.1029 26.1733 63.9257 27.0699C63.6717 28.0451 64.6342 28.8123 65.5479 28.401C66.1678 28.156 66.592 27.5205 66.592 26.8365H66.5943Z" fill="#EDD0C6"/>
<path d="M83.9311 28.93C82.831 28.93 82.1714 28.1096 82.3602 26.975C82.528 25.9651 83.5675 25.1586 84.5953 25.2395C85.6511 25.3227 86.2687 26.2332 86.003 27.31C85.7676 28.2575 84.9053 28.9323 83.9311 28.93V28.93ZM85.5416 26.8525C85.5439 26.0275 84.9356 25.5376 84.1199 25.704C83.3391 25.8657 82.7168 26.76 82.8403 27.5434C82.9429 28.1928 83.5092 28.6018 84.1502 28.4932C84.9333 28.3615 85.5392 27.6474 85.5416 26.8525Z" fill="#EDD0C6"/>
<path d="M50.0508 28.9302C48.9181 28.9302 48.2328 28.0359 48.4892 26.8966C48.8295 25.0895 51.8011 24.4655 52.1507 26.5615C52.2882 27.8348 51.3163 28.9302 50.0508 28.9302V28.9302ZM48.953 27.3264C48.9484 28.1607 49.5846 28.6575 50.405 28.4588C51.1671 28.2739 51.7498 27.4512 51.6589 26.684C51.5843 26.0462 51.0646 25.6071 50.4563 25.6672C49.6312 25.7481 48.9577 26.4922 48.9553 27.3264H48.953Z" fill="#EDD0C6"/>
<path d="M104.295 29.7367C104.374 29.6281 104.453 29.5172 104.528 29.4132C105.264 29.6327 105.586 29.5403 105.959 28.9972C106.01 28.9233 106.041 28.8077 106.027 28.7222C105.845 27.6084 105.6 26.5015 105.442 25.3853C105.849 25.249 105.922 25.2906 105.989 25.6903C106.159 26.5546 106.225 27.412 106.462 28.2624C107.066 27.3935 107.621 26.5292 108.178 25.6349C108.362 25.3322 108.579 25.2651 108.917 25.3553C108.166 26.5546 107.355 27.7147 106.57 28.8932C106.066 29.7021 105.199 30.3953 104.297 29.7367H104.295Z" fill="#EDD0C6"/>
<path d="M103.585 28.8632C103.779 28.0821 104.016 27.375 104.161 26.6147C104.219 25.8891 103.69 25.4939 102.995 25.7504C102.45 25.9515 102.163 26.379 102.014 26.9105C101.828 27.5575 101.676 28.2115 101.478 28.8539H101.01C101.252 27.7771 101.574 26.7256 101.851 25.658C101.954 25.2813 101.97 25.2721 102.399 25.3645C102.383 25.4916 102.364 25.6233 102.341 25.8128C102.457 25.7227 102.525 25.6487 102.609 25.6095C102.881 25.4777 103.147 25.2906 103.436 25.249C104.282 25.1288 104.858 25.7666 104.674 26.6031C104.52 27.3033 104.319 27.9966 104.131 28.6899C104.047 29.0018 103.804 28.8123 103.587 28.8586L103.585 28.8632Z" fill="#EDD0C6"/>
<path d="M70.0905 28.8609C70.2676 28.126 70.4634 27.4697 70.6405 26.751C70.8713 26.0069 70.2024 25.4685 69.4938 25.7527C68.3845 26.1571 68.4217 27.5344 68.0838 28.4819C68.0077 28.7623 67.8111 28.8809 67.4941 28.8377C67.7785 27.7794 68.0558 26.7256 68.3402 25.6672C68.4404 25.2952 68.4917 25.2674 68.9065 25.3714C68.8855 25.5078 68.8646 25.6464 68.8482 25.7481C69.1606 25.5886 69.4589 25.3691 69.7945 25.279C70.6755 25.0433 71.3654 25.7157 71.1673 26.6008C71.0111 27.301 70.8153 27.9943 70.6335 28.6875C70.552 29.0018 70.3119 28.8216 70.0928 28.8632L70.0905 28.8609Z" fill="#EDD0C6"/>
<path d="M57.0156 28.4425C56.6777 28.6066 56.3723 28.8377 56.0344 28.9024C55.0882 29.0849 54.4892 28.4194 54.7129 27.4743C54.8574 26.8642 55.0276 26.261 55.186 25.6556C55.2839 25.2858 55.3305 25.2604 55.7617 25.3713C55.5823 26.0739 55.3702 26.7694 55.2117 27.4789C55.0182 28.29 55.8037 28.7452 56.4982 28.3709C56.9201 28.1606 57.1857 27.8116 57.3116 27.3633C57.4747 26.7879 57.6262 26.2079 57.7871 25.6302C57.8849 25.2766 57.9409 25.2535 58.3511 25.3806C58.0807 26.4112 57.8057 27.4419 57.5214 28.4702C57.4452 28.7491 57.2518 28.8739 56.941 28.8446C56.969 28.6967 56.997 28.5511 57.0156 28.4448V28.4425Z" fill="#EDD0C6"/>
<path d="M74.8031 25.7017C74.7542 25.7965 74.6377 25.9328 74.6004 25.9675C74.1715 25.8543 73.7893 25.7272 73.3978 25.6625C72.878 25.6278 72.3303 26.2032 72.892 26.6053C73.188 26.7925 73.5259 26.9126 73.8406 27.0675C74.6167 27.4511 74.4302 28.3315 73.9105 28.6712C73.0528 29.2235 72.2185 28.8399 71.4004 28.3685C71.5775 28.2275 71.6847 28.142 71.8106 28.0427C72.1392 28.2992 72.5121 28.5441 72.9666 28.5141C73.512 28.4979 74.2718 28.0612 73.6378 27.5343C73.3348 27.3448 72.9876 27.2177 72.6636 27.0629C71.9481 26.7347 72.0763 25.8543 72.5564 25.54C73.2556 25.0662 74.1389 25.1772 74.8031 25.704V25.7017Z" fill="#EDD0C6"/>
<path d="M60.5829 24.2642C60.4944 24.6086 60.4128 24.9344 60.3149 25.3157H61.394C61.3777 25.7455 61.366 25.7571 61.0094 25.7571C60.8043 25.7571 60.5992 25.7663 60.3941 25.7548C60.231 25.7455 60.1657 25.8148 60.1284 25.965C59.9839 26.5266 59.8278 27.0858 59.6786 27.6474C59.4456 28.4261 59.8278 28.5833 60.5433 28.4169C60.5666 28.7751 60.5107 28.8675 60.1844 28.9068C60.0026 28.9276 59.8115 28.9207 59.632 28.8814C59.2032 28.7866 59.0074 28.5509 59.0913 28.1234C59.2451 27.3308 59.4875 26.5728 59.6646 25.7802C59.5038 25.7663 59.3687 25.7548 59.2242 25.7409C59.2195 25.4636 59.2894 25.2903 59.6157 25.3088C59.9257 25.2533 59.928 24.8327 60.0049 24.5878C60.0748 24.332 60.2675 24.2249 60.5829 24.2665V24.2642Z" fill="#EDD0C6"/>
<path d="M52.5957 28.8309C53.0129 27.2664 53.4254 25.7505 53.8449 24.1952C53.9498 23.8024 53.9778 23.7862 54.4323 23.8833C54.0127 25.42 53.6002 26.9568 53.19 28.4958C53.117 28.767 52.9189 28.8779 52.5957 28.8286V28.8309Z" fill="#EDD0C6"/>
<path d="M62.0172 28.8562H61.5254C61.7957 27.7885 62.0894 26.7463 62.3761 25.6856C62.4833 25.2904 62.488 25.2904 62.9611 25.3552C62.6464 26.5198 62.3341 27.6776 62.0172 28.8585V28.8562Z" fill="#EDD0C6"/>
<path d="M41.366 24.3894C41.683 24.0451 42.0628 23.9133 42.5057 23.9619C43.093 24.0266 43.3587 24.6251 42.9998 25.0919C42.5173 25.6188 41.8834 26.0024 41.331 26.4553C41.3357 26.4831 41.3403 26.5131 41.3473 26.5408C41.7389 26.5454 42.1304 26.5293 42.5197 26.5454C42.5942 26.5501 42.6665 26.6125 42.7387 26.6494C42.6618 26.6933 42.5849 26.7742 42.508 26.7765C41.9347 26.7927 41.359 26.7788 40.7856 26.7835C40.7693 26.758 40.7507 26.7303 40.7344 26.7049C40.8043 26.6148 40.8579 26.5062 40.9441 26.4391C41.5361 25.9308 42.2563 25.5379 42.769 24.9486C42.9951 24.6112 42.811 24.2161 42.4031 24.223C42.1631 24.2276 41.9044 24.3385 41.6899 24.461C41.5338 24.5511 41.4545 24.5858 41.3683 24.3871L41.366 24.3894Z" fill="#EDD0C6"/>
<path d="M63.3476 23.9872C63.2753 24.5234 63.2544 24.5395 62.709 24.4587C62.7626 23.904 62.7649 23.904 63.3476 23.9872Z" fill="#EDD0C6"/>
</g>
<defs>
<clipPath id="clip0_2113_4814">
<rect width="109" height="30" fill="white"/>
</clipPath>
</defs>
</svg>
