<svg width="103" height="30" viewBox="0 0 103 30" fill="none" xmlns="http://www.w3.org/2000/svg">
<g clip-path="url(#clip0_1902_4570)">
<path d="M15.7702 -0.000256887C15.7571 0.152659 15.7834 0.325236 15.722 0.458492C15.5991 0.722819 15.4214 0.960931 15.281 1.2187C15.0374 1.67308 15.0857 1.76047 15.5925 1.73862C16.6193 1.69493 17.611 1.80852 18.4973 2.36995C18.6663 2.47699 18.8615 2.64738 18.8966 2.81559C18.9164 2.91826 18.6597 3.08865 18.5105 3.21099C18.3284 3.36172 18.1331 3.49279 17.9466 3.72216C19.3815 3.98212 20.6935 4.43869 21.8058 5.48507C21.3539 5.58774 20.9019 5.69041 20.4499 5.79309C20.4324 5.84988 20.4126 5.90668 20.3951 5.96348C22.1898 6.55985 23.2977 7.84872 24.1972 9.3473C24.1665 9.38881 24.1358 9.43031 24.1051 9.46963C23.6904 9.3757 23.2736 9.28395 22.8589 9.19001C22.837 9.2337 22.8172 9.27739 22.7953 9.32108C22.9467 9.48274 23.1178 9.63129 23.2494 9.80823C23.7738 10.5138 24.296 11.2216 24.7984 11.9447C24.9059 12.0998 24.952 12.3139 24.9827 12.5061C25.0287 12.7901 24.9081 12.9539 24.5965 13.0238C23.9076 13.1789 23.9142 13.2226 24.081 13.8802C24.4473 15.3351 24.7128 16.8162 24.4583 18.3104C24.1556 20.0995 23.0717 21.443 21.729 22.5964C21.4438 22.8411 21.3626 23.0945 21.3188 23.4571C21.174 24.628 21.0555 25.8164 20.7483 26.9502C20.2415 28.8114 18.7869 29.6262 16.9813 29.9298C15.6649 30.1505 14.4275 29.8337 13.2318 29.3182C13.0519 29.2395 12.883 29.115 12.7404 28.9774C12.51 28.7546 12.4683 28.5121 12.7184 28.2543C13.1177 27.8458 13.4995 27.4198 13.8966 27.007C14.7149 26.1594 14.5153 24.9186 13.4688 24.3681C12.2204 23.7127 10.994 23.9049 10.2985 24.8661C9.76973 25.5958 9.87504 26.2467 10.6605 26.688C11.0269 26.8934 11.4613 27.0048 11.8803 27.0921C12.4047 27.2014 12.5253 27.3718 12.3454 27.8917C11.9988 28.8922 11.2002 29.316 10.2349 29.4733C7.73373 29.8818 4.67096 28.8245 3.79338 25.4319C3.5652 24.5472 3.37652 23.6668 3.56301 22.7428C3.59153 22.603 3.46867 22.3911 3.35239 22.2731C3.03865 21.9542 2.70298 21.6527 2.35194 21.3753C0.539728 19.9378 -0.614297 16.8249 0.86224 14.1838C0.980714 13.9697 1.04434 13.7251 1.17598 13.3865C0.704275 13.5088 0.375181 13.5962 1.28609e-05 13.6967C-0.0021811 12.801 0.276452 12.0736 0.741572 11.4313C1.19792 10.8044 1.72227 10.2233 2.29709 9.52643C1.70911 9.65969 1.21766 9.76891 0.577025 9.91309C0.715245 9.55264 0.770094 9.30142 0.89515 9.09389C1.48752 8.12397 2.20056 7.2589 3.18126 6.6385C3.36555 6.52272 3.52352 6.36325 3.69245 6.22562C3.6771 6.18849 3.66393 6.15135 3.64857 6.11421C3.4577 6.10329 3.26682 6.08581 3.07595 6.08363C2.71614 6.07926 2.68104 5.89794 2.83242 5.6358C2.91579 5.48944 3.0211 5.34963 3.14396 5.23385C3.93379 4.48238 4.80041 3.84668 5.8557 3.50153C5.99392 3.45565 6.12117 3.37264 6.3998 3.23502C6.05755 3.06025 5.84034 2.94884 5.62095 2.83962C5.27649 2.66704 5.25017 2.51631 5.58146 2.33062C5.86009 2.17334 6.16724 2.02916 6.47879 1.97455C7.49459 1.79542 8.5082 1.75391 9.50207 2.13402C9.87504 2.27601 10.0506 2.13402 9.95622 1.74517C9.88162 1.43934 9.71927 1.15317 9.58324 0.862628C9.50865 0.703158 9.41212 0.556795 9.24976 0.268439C9.64906 0.30776 9.94964 0.261885 10.1668 0.373296C10.8053 0.705343 11.4262 1.0789 12.0229 1.47866C12.2796 1.65124 12.4244 1.72551 12.6767 1.46774C13.3832 0.753402 14.2432 0.279362 15.2086 -0.00244141C15.3951 -0.00244141 15.5815 -0.00244141 15.768 -0.00244141L15.7702 -0.000256887ZM6.77936 19.6145C6.93733 19.7631 7.05141 19.8614 7.15672 19.9684C7.85001 20.6784 7.79736 21.5588 7.0207 22.1792C6.59507 22.5199 6.11898 22.7318 5.55952 22.651C5.10756 22.5855 4.86622 22.7777 4.85306 23.2103C4.83331 23.7739 4.7653 24.3549 4.87281 24.8989C5.3467 27.2997 7.40244 28.8114 9.84871 28.5995C10.0879 28.5798 10.338 28.499 10.5486 28.3832C10.8075 28.2412 10.8623 28.0446 10.5332 27.8829C10.3533 27.7934 10.1756 27.6973 10.0089 27.5858C8.97771 26.8912 8.62009 25.6067 9.14006 24.4882C9.83116 22.9962 11.3669 22.3605 13.0541 22.9743C15.27 23.7782 16.5908 26.0654 14.4319 28.3308C14.3749 28.3919 14.3376 28.4728 14.2542 28.6038C14.5109 28.6584 14.7149 28.7152 14.9212 28.7415C16.6785 28.9665 18.234 28.6519 19.3069 27.0878C19.93 26.179 20.1867 25.1676 20.1757 24.0753C20.1713 23.6799 20.0287 23.5292 19.6162 23.551C18.9997 23.5838 18.3723 23.6188 17.7601 23.551C16.9045 23.4571 16.1476 23.077 15.5793 22.4282C14.8795 21.6287 15.1669 20.6981 16.1739 20.3857C16.2397 20.366 16.2968 20.3223 16.3933 20.2721C15.8075 19.6451 15.0111 19.123 15.4192 18.14C15.8404 17.1242 16.7816 17.4781 17.5934 17.4999C17.3323 17.1133 17.0669 16.8205 16.9177 16.4776C16.5096 15.5382 17.0734 14.6994 18.1002 14.7059C18.482 14.7081 18.8769 14.7649 19.2455 14.8698C19.772 15.0183 20.281 15.2302 20.8536 15.4356C20.8822 15.2433 20.9326 15.0838 20.9238 14.9244C20.9063 14.5727 20.8756 14.2188 20.8163 13.8693C20.7483 13.4695 20.9348 13.3056 21.3012 13.251C21.672 13.1964 21.8409 13.3734 21.9155 13.712C22.1305 14.6644 22.0077 15.5754 21.6084 16.4623C21.4811 16.7484 21.3231 16.755 21.0577 16.637C20.4105 16.3465 19.7567 16.0625 19.0875 15.8244C18.8857 15.7523 18.629 15.8353 18.3986 15.8462C18.4183 16.0712 18.3525 16.3793 18.4754 16.5082C18.98 17.0412 19.5416 17.5218 20.0836 18.0198C20.1954 18.1225 20.3205 18.2143 20.439 18.3104C20.4258 18.3737 20.4126 18.4393 20.4017 18.5026C19.1862 18.5834 17.9708 18.6643 16.6544 18.7517C17.4289 19.8155 18.686 20.0361 19.6733 20.7527C19.5065 20.8248 19.3903 20.8947 19.2652 20.9274C18.5917 21.1022 17.9115 21.2551 17.2446 21.4452C17.0405 21.502 16.865 21.6571 16.6763 21.7663C16.8453 21.9083 16.9966 22.1442 17.1831 22.1748C17.8501 22.2818 18.5324 22.3998 19.2016 22.3648C20.1296 22.3146 20.9589 21.9935 21.6084 21.2398C23.6093 18.922 23.6487 16.3268 22.7734 13.5918C22.5276 12.8251 22.4925 12.8251 23.2143 12.4712C23.5061 12.327 23.572 12.1653 23.3855 11.8944C22.611 10.7563 21.8365 9.62036 20.6189 8.882C20.4192 8.76185 20.2547 8.58053 20.0748 8.4298C20.0901 8.37519 20.1033 8.31839 20.1187 8.26378C20.6342 8.21135 21.1498 8.16111 21.6654 8.10868C21.6764 8.06717 21.6873 8.02567 21.6983 7.98416C20.6342 7.18681 19.4978 6.51616 18.0849 6.17319C18.4929 5.80838 18.8374 5.50036 19.2564 5.12681C19.0063 5.0569 18.8374 4.97826 18.6684 4.96952C17.8633 4.9302 17.0581 4.9018 16.2529 4.88433C15.8953 4.87559 15.7878 4.75107 15.994 4.4365C16.2726 4.01489 16.5513 3.59328 16.8628 3.12361C15.7483 2.83525 14.7193 3.00564 13.6596 3.52337C13.6925 3.03186 13.7211 2.63646 13.7474 2.23887L13.5697 2.15586C13.1616 2.66704 12.7513 3.17603 12.3213 3.71343C11.9659 3.18696 11.6478 2.71073 11.277 2.16023C11.0269 2.76316 10.8228 3.24812 10.6166 3.74401C9.6359 3.44473 8.79342 2.83962 7.65256 3.02312C7.8895 3.33113 8.06941 3.53866 8.21641 3.76804C8.29978 3.89911 8.3283 4.06732 8.38095 4.21805C8.23615 4.253 8.09354 4.29451 7.94874 4.32291C7.1655 4.48675 6.37567 4.62874 5.59901 4.81879C5.3489 4.87996 5.1295 5.06783 4.8026 5.24914C5.43665 5.63362 6.11678 5.75595 6.54022 6.39601C5.14486 6.62757 4.08078 7.28511 3.22514 8.39703C3.7846 8.61767 4.27605 8.81209 4.86842 9.04584C4.63586 9.22278 4.48228 9.31672 4.35503 9.44123C3.61128 10.1534 2.83681 10.8393 2.1501 11.6039C1.73544 12.0648 1.79467 12.1304 2.31684 12.4624C2.64593 12.6721 2.73808 12.8731 2.52526 13.2554C2.20495 13.8321 1.89121 14.4329 1.7113 15.062C1.51604 15.7458 1.36466 16.4776 1.39537 17.1788C1.46119 18.7101 2.19836 19.9138 3.44673 20.8401C4.01935 21.266 4.58101 21.5981 5.3116 21.4736C5.62972 21.419 6.15189 21.3774 6.20893 21.2049C6.34715 20.7985 5.87106 20.6697 5.58146 20.484C5.12292 20.1891 4.66438 19.8942 4.12686 19.5446C4.34845 19.4441 4.4384 19.3983 4.53274 19.3589C5.25894 19.0575 5.99173 18.7626 6.71135 18.4458C6.82543 18.3956 6.89125 18.2361 6.97901 18.1247C6.84957 18.0592 6.7267 17.9521 6.59287 17.939C6.39542 17.9194 6.19357 17.9827 5.99173 17.9805C5.15583 17.9718 4.31773 17.9499 3.48183 17.9346C3.42918 17.8407 3.37872 17.7468 3.32606 17.6528C3.48183 17.5764 3.66174 17.5305 3.78679 17.4191C4.34187 16.9276 4.88816 16.423 5.4191 15.9052C5.53538 15.7916 5.58146 15.6038 5.65824 15.4508C5.47615 15.405 5.29405 15.346 5.10756 15.322C5.02419 15.311 4.93204 15.37 4.84428 15.4028C4.1861 15.6518 3.52791 15.903 2.84558 16.163C2.81267 16.0691 2.75782 15.997 2.7666 15.9314C2.86533 15.062 2.96845 14.1947 3.08692 13.3275C3.10228 13.2139 3.18345 13.0981 3.26244 13.0064C3.495 12.742 3.8921 12.7355 4.23656 12.9823C4.53713 13.1986 4.32651 13.4149 4.23217 13.6311C4.12905 13.8714 4.02155 14.1117 3.89649 14.3935C4.52397 14.3149 5.04174 14.21 5.55952 14.1991C6.11678 14.1882 6.57093 14.4154 6.84298 14.9506C7.11723 15.488 6.95268 15.9293 6.60823 16.3531C6.53583 16.4404 6.48317 16.5453 6.37567 16.7135C7.24448 16.7987 8.08477 16.8861 8.19008 17.9106C8.28881 18.8805 7.51873 19.2366 6.77497 19.6211L6.77936 19.6145Z" fill="#EDD0C6"/>
<path d="M67.5443 18.2407V22.057C67.3096 22.0679 67.145 22.081 66.9805 22.0832C66.0656 22.0832 65.1507 22.0898 64.2336 22.0832C63.4789 22.0788 63.5228 22.2056 63.5228 21.3536C63.5206 19.488 63.5228 17.6246 63.5228 15.759C63.5228 13.201 63.5338 10.6429 63.5118 8.08482C63.5074 7.61952 63.6325 7.47316 64.1086 7.49063C65.1003 7.52777 66.0941 7.51466 67.0858 7.495C67.439 7.48845 67.5334 7.6086 67.5312 7.9472C67.518 10.0749 67.5246 12.2005 67.5268 14.3282C67.5268 14.5051 67.5443 14.6821 67.5597 14.9901C67.7813 14.7891 67.9151 14.6755 68.038 14.551C68.8739 13.7253 69.6988 12.8864 70.5523 12.0825C70.7322 11.9143 71.024 11.7832 71.2675 11.7788C72.6782 11.7504 74.0911 11.7636 75.5018 11.7657C75.6335 11.7657 75.7673 11.7788 76.0196 11.792C74.2601 13.4282 72.5817 14.9901 70.8419 16.6066C72.7089 18.3608 74.5453 20.0866 76.3816 21.8102C76.4233 21.7949 76.4672 21.7796 76.5089 21.7643C76.5089 21.5895 76.5089 21.4148 76.5089 21.24C76.5089 16.8622 76.5089 12.4866 76.5089 8.10885C76.5089 7.70544 76.7107 7.50301 77.1144 7.50156C78.1083 7.50156 79.0999 7.51685 80.0938 7.49282C80.4712 7.48408 80.5655 7.61734 80.5633 7.96904C80.5501 10.0815 80.5567 12.1917 80.5567 14.3041C80.5567 14.4811 80.5567 14.6602 80.5567 14.9879C80.7893 14.7847 80.9143 14.6864 81.0262 14.5772C81.8753 13.7427 82.709 12.8929 83.5778 12.0781C83.7577 11.9099 84.0517 11.781 84.2974 11.7767C85.8332 11.7504 87.3668 11.7636 88.9728 11.8531C87.29 13.4194 85.6072 14.9857 83.8718 16.6044C85.7937 18.4132 87.6915 20.1958 89.6573 22.0461C89.4532 22.0636 89.3282 22.081 89.2031 22.081C87.7749 22.081 86.3488 22.0963 84.9205 22.0679C84.677 22.0636 84.3808 21.9347 84.2031 21.7643C83.1654 20.7681 82.1539 19.748 81.1403 18.7278C80.9999 18.588 80.9012 18.4089 80.7805 18.2494C80.7169 18.2822 80.6511 18.3149 80.5874 18.3477V22.0548C80.3307 22.0657 80.164 22.0789 79.9995 22.0789C77.3162 22.0789 74.6308 22.0745 71.9476 22.0876C71.6054 22.0876 71.3728 21.9827 71.138 21.7468C70.0827 20.6808 69.0121 19.6322 67.9436 18.5793C67.8493 18.4875 67.744 18.4089 67.5421 18.2385L67.5443 18.2407Z" fill="#EDD0C6"/>
<path d="M32.6826 20.7003C32.6826 22.2469 32.6585 23.6472 32.6958 25.0453C32.709 25.5325 32.551 25.646 32.0925 25.6308C31.0854 25.6002 30.0762 25.6177 29.067 25.6242C28.8059 25.6242 28.6326 25.6002 28.6348 25.2594C28.6436 20.851 28.6414 16.4449 28.6436 12.0365C28.6436 11.9622 28.6611 11.8901 28.6765 11.7678C29.9007 11.7678 31.1074 11.7612 32.3119 11.7809C32.3909 11.7809 32.5159 11.9775 32.5335 12.0955C32.5686 12.3292 32.5444 12.5739 32.5444 12.8164C32.6541 12.8164 32.6958 12.8295 32.709 12.8164C33.4154 12.0365 34.3215 11.7023 35.3505 11.6367C36.8556 11.5406 38.3584 11.5253 39.8394 11.8464C41.7196 12.2549 42.5906 13.1703 42.7113 15.0752C42.7968 16.4383 42.742 17.8167 42.6476 19.1799C42.5555 20.5321 41.7657 21.4365 40.4646 21.8253C38.5603 22.3933 36.6098 22.3562 34.6594 22.1071C33.9486 22.0154 33.4045 21.6069 32.9876 21.0323C32.9284 20.9515 32.8494 20.8816 32.6826 20.7003ZM35.8398 19.1646C36.4124 19.1646 36.9872 19.1952 37.5576 19.158C38.4155 19.1012 38.795 18.7233 38.8389 17.8801C38.874 17.2357 38.874 16.5868 38.8367 15.9424C38.7884 15.1363 38.4286 14.7344 37.6235 14.7016C36.4497 14.6536 35.2693 14.6448 34.0956 14.706C33.1522 14.7562 32.7046 15.3111 32.6848 16.2679C32.6761 16.6983 32.6761 17.1308 32.6848 17.5611C32.7024 18.5704 33.1938 19.099 34.214 19.1602C34.7537 19.193 35.2979 19.1668 35.8398 19.1646Z" fill="#EDD0C6"/>
<path d="M95.8301 11.6677C97.1157 11.6677 98.4058 11.5999 99.687 11.6829C101.6 11.8096 102.914 13.1662 102.967 15.0624C103.007 16.5064 103.046 17.97 102.855 19.3943C102.638 21.0239 101.379 22.0354 99.7112 22.1708C98.8468 22.2407 97.9779 22.2516 97.1091 22.2473C95.4198 22.2407 93.726 22.2669 92.0411 22.1686C90.1828 22.0616 88.9257 20.9562 88.7501 19.1212C88.6031 17.5986 88.6317 16.0389 88.7918 14.5163C88.9629 12.8932 90.2376 11.8402 91.8787 11.672C92.1398 11.6458 92.4031 11.5999 92.6664 11.5977C93.7217 11.589 94.7748 11.5934 95.8301 11.5934C95.8301 11.6174 95.8301 11.6414 95.8301 11.6633V11.6677ZM95.9529 19.2654C96.6638 19.1802 97.4338 19.1103 98.193 18.9836C98.6317 18.9115 98.9104 18.5948 98.9279 18.1447C98.9586 17.3627 98.9652 16.5784 98.9477 15.7964C98.9367 15.2415 98.5879 14.9029 98.0657 14.8134C96.6682 14.5731 95.2574 14.5272 93.8599 14.7981C93.1117 14.9422 92.7475 15.4032 92.6883 16.1612C92.6488 16.6811 92.6488 17.2098 92.6949 17.7297C92.7629 18.479 93.1359 18.9115 93.9016 19.0579C94.551 19.1824 95.2223 19.1977 95.9507 19.2654H95.9529Z" fill="#EDD0C6"/>
<path d="M53.1826 18.5248C54.3937 18.5248 55.539 18.5161 56.6842 18.5401C56.7829 18.5401 56.9519 18.7607 56.9607 18.8874C57.0484 20.3751 56.2805 21.4848 54.7996 21.8781C54.0142 22.0856 53.1848 22.2145 52.3731 22.2341C50.8088 22.2735 49.2401 22.2582 47.678 22.1773C45.2624 22.0506 43.8627 20.7268 43.6674 18.3348C43.5753 17.2054 43.6016 16.0498 43.7398 14.9247C43.9746 13.0351 44.9728 11.9516 46.864 11.7288C49.2182 11.4492 51.6052 11.4142 53.9527 11.8489C55.8878 12.2072 56.7742 13.2776 56.9058 15.2218C56.9541 15.9274 56.9343 16.6374 56.9804 17.3452C57.0089 17.7602 56.8575 17.8673 56.4538 17.8651C53.786 17.8498 51.1181 17.852 48.4503 17.8651C48.1826 17.8651 47.8162 17.8935 47.6758 18.0595C47.4586 18.3173 47.7153 19.0993 48.0378 19.2981C48.2813 19.4467 48.5753 19.593 48.8496 19.5996C49.9487 19.6324 51.0479 19.6433 52.1471 19.5974C52.7548 19.5712 53.2331 19.2828 53.1848 18.527L53.1826 18.5248ZM53.0137 15.3791C52.9786 14.7194 52.7702 14.4245 52.2239 14.324C50.947 14.0924 49.6635 14.099 48.3866 14.3174C47.8009 14.4179 47.621 14.739 47.7109 15.3769H53.0137V15.3791Z" fill="#EDD0C6"/>
<path d="M57.9885 11.7657C59.2457 11.7657 60.4655 11.7613 61.6854 11.7766C61.7753 11.7766 61.8938 11.9121 61.9442 12.0126C61.9881 12.0978 61.9596 12.2245 61.9596 12.3315C61.9596 15.3964 61.9508 18.4591 61.9684 21.524C61.9706 21.963 61.8565 22.1094 61.4001 22.0963C60.2746 22.0635 59.1469 22.0854 57.9863 22.0854V11.7657H57.9885Z" fill="#EDD0C6"/>
<path d="M57.9824 10.6016V7.50176C58.5901 7.50176 59.1737 7.50176 59.7573 7.50176C60.3629 7.50176 60.9684 7.5105 61.5717 7.49739C61.8482 7.49083 61.9667 7.58477 61.9623 7.86657C61.9535 8.68358 61.971 9.50059 61.9447 10.3154C61.9403 10.4399 61.7582 10.6606 61.6573 10.6628C60.4792 10.6824 59.301 10.6693 58.1228 10.6628C58.0812 10.6628 58.0395 10.6278 57.9824 10.5994V10.6016Z" fill="#EDD0C6"/>
<path d="M10.9297 15.154C10.9055 15.331 10.8924 15.5101 10.8529 15.6827C10.6467 16.5652 11.0262 17.0393 11.9477 17.0568C12.6015 17.0677 13.196 16.9038 13.7709 16.4997C13.49 16.0519 13.2048 15.6346 12.9613 15.1955C12.7924 14.8897 12.641 14.5598 12.5576 14.2234C12.4611 13.8346 12.6081 13.7232 13.0117 13.8062C13.4813 13.9001 13.9442 14.029 14.4181 14.0814C14.9424 14.1382 15.096 13.9897 14.8898 13.5069C14.5739 12.7664 14.1351 12.0782 13.7401 11.3726C13.648 11.2088 13.5186 11.069 13.4725 10.8418C13.5822 10.8767 13.7116 10.8855 13.8016 10.9488C14.6441 11.5452 15.4054 12.2137 15.7476 13.2295C16.1206 14.3414 15.6664 14.9968 14.4883 15.0579C14.4137 15.0623 14.3391 15.0776 14.1153 15.1082C14.4247 15.6849 14.6704 16.2201 14.9863 16.7094C15.2649 17.1398 15.2891 17.2119 14.8437 17.439C13.8542 17.9459 12.8165 18.2932 11.6888 18.2692C11.0679 18.2561 10.436 18.1425 10.1618 17.5024C9.87438 16.8339 9.90071 16.1502 10.3614 15.532C10.4865 15.3638 10.605 15.1912 10.7256 15.0186L10.9275 15.154H10.9297Z" fill="#EDD0C6"/>
<path d="M11.1077 9.80197C11.1121 9.34104 11.3315 9.07234 11.7022 9.07671C12.0972 9.0789 12.4197 9.52017 12.4175 10.0554C12.4153 10.4639 12.1959 10.7195 11.858 10.7042C11.4368 10.6867 11.1033 10.2869 11.1055 9.80416L11.1077 9.80197Z" fill="#EDD0C6"/>
<path d="M15.3021 9.77593C15.3065 10.3221 15.131 10.523 14.6549 10.5165C14.2534 10.5121 14.0033 10.2478 14.0099 9.83491C14.0165 9.38053 14.339 8.98513 14.701 8.98731C15.0542 8.9895 15.2999 9.31062 15.3043 9.77593H15.3021Z" fill="#EDD0C6"/>
<path d="M11.7485 7.24628C11.3997 7.66571 11.064 8.10043 10.6845 8.49364C10.6165 8.56355 10.2983 8.52204 10.2215 8.43029C10.1096 8.29266 10.0087 7.95406 10.0767 7.89071C10.5177 7.49095 11.0048 7.14361 11.6301 7.11084C11.6696 7.15671 11.7069 7.2004 11.7463 7.24628H11.7485Z" fill="#EDD0C6"/>
<path d="M13.1016 7.20214C13.6566 6.81985 14.6702 7.16282 14.815 7.77886C14.8436 7.90337 14.7931 8.10653 14.7032 8.18299C14.6198 8.2529 14.3894 8.25508 14.2995 8.18736C13.887 7.87934 13.5009 7.53856 13.1016 7.20433V7.20214Z" fill="#EDD0C6"/>
</g>
<defs>
<clipPath id="clip0_1902_4570">
<rect width="103" height="30" fill="white"/>
</clipPath>
</defs>
</svg>
