<svg width="77" height="30" viewBox="0 0 77 30" fill="none" xmlns="http://www.w3.org/2000/svg">
<g clip-path="url(#clip0_1887_5137)">
<path d="M18.4017 26.4458C18.511 25.7317 18.8738 25.0796 19.4251 24.6063C19.9763 24.1331 20.6798 23.8696 21.4096 23.8632C21.8491 23.8552 22.2806 23.9797 22.6469 24.2201C23.0132 24.4605 23.297 24.8055 23.4605 25.2092L22.4219 25.6932C22.3254 25.4623 22.1603 25.2659 21.9484 25.1301C21.7365 24.9942 21.4879 24.9254 21.2356 24.9327C20.3867 24.9327 19.6196 25.6136 19.4878 26.4458C19.356 27.2779 19.8951 27.9588 20.7426 27.9588C21.0299 27.9523 21.3114 27.8779 21.5636 27.7417C21.8158 27.6056 22.0315 27.4117 22.1925 27.1762L23.0835 27.664C22.5181 28.474 21.7351 29.0271 20.5792 29.0271C19.2058 29.0284 18.1697 27.8727 18.4017 26.4458Z" fill="#EDD0C6"/>
<path d="M24.0043 23.9351H24.8373L24.2587 25.4925H23.4902L24.0043 23.9351Z" fill="#EDD0C6"/>
<path d="M28.1725 27.4564H25.3755C25.3792 27.5597 25.4036 27.6612 25.4472 27.7551C25.4907 27.8489 25.5526 27.9334 25.6294 28.0035C25.7061 28.0736 25.796 28.1279 25.8941 28.1634C25.9921 28.1989 26.0963 28.2149 26.2006 28.2103C26.3697 28.214 26.5377 28.1827 26.6938 28.1185C26.85 28.0542 26.9908 27.9585 27.1075 27.8373L27.7164 28.359C27.2959 28.8325 26.7595 29.0542 26.02 29.0477C24.9761 29.0399 24.2512 28.2077 24.4186 27.189C24.586 26.1703 25.3966 25.2964 26.6145 25.2964C27.7085 25.2912 28.4704 26.1729 28.1725 27.4564ZM27.2498 26.7821C27.2318 26.5976 27.1428 26.427 27.0012 26.3056C26.8597 26.1842 26.6764 26.1213 26.4893 26.1299C26.2813 26.1352 26.0792 26.1995 25.907 26.3151C25.7348 26.4307 25.5998 26.5928 25.5179 26.7821H27.2498Z" fill="#EDD0C6"/>
<path d="M28.123 28.1245L29.0655 27.8089C29.138 28.1102 29.4134 28.2745 29.7535 28.2745C30.1674 28.2745 30.4125 28.1024 30.4495 27.8376C30.5154 27.4463 29.5874 27.6289 28.9996 27.3785C28.8206 27.3103 28.6727 27.1802 28.5835 27.0122C28.4943 26.8443 28.4698 26.6499 28.5145 26.4654C28.6226 25.7911 29.362 25.2915 30.203 25.2915C30.9938 25.2915 31.4789 25.6932 31.5514 26.2593L30.6287 26.5032C30.5931 26.2306 30.4191 26.0585 30.0857 26.0519C29.7522 26.0454 29.5057 26.245 29.4767 26.4602C29.3963 26.9337 30.3611 26.7041 30.9622 26.948C31.1441 27.0176 31.2951 27.149 31.3881 27.3187C31.4811 27.4884 31.51 27.6853 31.4696 27.8741C31.3378 28.6411 30.5707 29.0859 29.6243 29.0859C28.8809 29.0924 28.2324 28.7311 28.123 28.1245Z" fill="#EDD0C6"/>
<path d="M32.0599 27.6939L32.2919 26.28H31.6328L31.7778 25.4061H32.4302L32.5976 24.373H33.6257L33.4597 25.4061H34.4311L34.2927 26.28H33.3213L33.1196 27.5217C33.0603 27.8948 33.2422 28.1165 33.6257 28.1165C33.7693 28.114 33.9115 28.0875 34.0462 28.0383L33.9144 28.8561C33.6848 28.9294 33.4453 28.9681 33.204 28.9709C32.3564 28.9709 31.936 28.44 32.0599 27.6939Z" fill="#EDD0C6"/>
<path d="M36.1979 27.7227L36.8649 23.5762H37.8943L37.2563 27.5362C37.2049 27.8727 37.3723 28.067 37.7124 28.067C37.8067 28.0686 37.9004 28.0513 37.9879 28.0162L37.8429 28.8992C37.6535 28.9495 37.4589 28.9784 37.2629 28.9853C36.4734 28.9918 36.0674 28.5405 36.1979 27.7227Z" fill="#EDD0C6"/>
<path d="M38.8513 23.9351H39.6882L39.1083 25.4925H38.3398L38.8513 23.9351Z" fill="#EDD0C6"/>
<path d="M43.0195 27.4564H40.216C40.2256 27.6645 40.3178 27.8604 40.4725 28.0016C40.6273 28.1427 40.8321 28.2178 41.0424 28.2103C41.2115 28.214 41.3795 28.1827 41.5356 28.1185C41.6918 28.0542 41.8326 27.9585 41.9493 27.8373L42.5582 28.359C42.1377 28.8325 41.6013 29.0542 40.8618 29.0477C39.8179 29.0399 39.093 28.2077 39.2604 27.189C39.4278 26.1703 40.2384 25.2964 41.4563 25.2964C42.5556 25.2912 43.3174 26.1729 43.0195 27.4564ZM42.0969 26.7821C42.0788 26.5976 41.9898 26.427 41.8483 26.3056C41.7067 26.1842 41.5234 26.1213 41.3363 26.1299C41.1283 26.1352 40.9263 26.1995 40.7541 26.3151C40.5819 26.4307 40.4468 26.5928 40.3649 26.7821H42.0969Z" fill="#EDD0C6"/>
<path d="M44.2527 27.1554L43.1982 25.4062H44.4161L44.975 26.3741L45.8449 25.4062H47.1063L45.489 27.1489L46.5435 28.9567H45.3256L44.7746 27.9302L43.8823 28.9567H42.6367L44.2527 27.1554Z" fill="#EDD0C6"/>
<path d="M47.2753 25.406H48.2968L48.2177 25.8925C48.3747 25.7249 48.5656 25.5919 48.7779 25.502C48.9902 25.4121 49.2192 25.3674 49.4501 25.3708C50.3412 25.3708 51.0516 26.1025 50.8776 27.1851C50.7036 28.2677 49.9062 28.9916 48.8702 28.9916C48.3838 28.9916 48.0068 28.7843 47.8157 28.4543L47.4453 30.7486H46.4238L47.2753 25.406ZM49.8376 27.1838C49.9181 26.6751 49.5991 26.2708 49.0771 26.2708C48.8222 26.2803 48.5783 26.3762 48.3864 26.5424C48.1944 26.7086 48.066 26.9351 48.0227 27.1838C47.9423 27.6938 48.2757 28.0969 48.7911 28.0969C49.0454 28.0883 49.2889 27.9925 49.4798 27.826C49.6707 27.6594 49.7972 27.4325 49.8376 27.1838Z" fill="#EDD0C6"/>
<path d="M54.7496 27.4564H51.9474C51.9573 27.665 52.0502 27.8612 52.2058 28.0022C52.3613 28.1432 52.567 28.2176 52.7778 28.2091C52.9468 28.2127 53.1148 28.1815 53.271 28.1172C53.4271 28.053 53.568 27.9572 53.6846 27.836L54.2936 28.3578C53.8731 28.8312 53.3366 29.053 52.5972 29.0464C51.5533 29.0386 50.8283 28.2064 50.9944 27.1878C51.1605 26.1691 51.9737 25.2951 53.1916 25.2951C54.2856 25.2912 55.0462 26.173 54.7496 27.4564ZM53.827 26.7821C53.8089 26.5976 53.7199 26.427 53.5783 26.3057C53.4368 26.1843 53.2535 26.1214 53.0664 26.1299C52.8584 26.1353 52.6563 26.1996 52.4841 26.3152C52.312 26.4308 52.1769 26.5928 52.095 26.7821H53.827ZM53.595 24.6951H52.9214L53.5884 23.6699H54.3792L53.595 24.6951Z" fill="#EDD0C6"/>
<path d="M55.3956 25.4061H56.429L56.3341 25.993C56.5255 25.7856 56.7603 25.6219 57.022 25.5131C57.2837 25.4044 57.5662 25.3531 57.8498 25.363L57.6824 26.4065C57.5289 26.3414 57.3625 26.311 57.1956 26.3176C57.0286 26.3241 56.8652 26.3675 56.7173 26.4445C56.5695 26.5214 56.4408 26.6301 56.3407 26.7625C56.2407 26.895 56.1718 27.0478 56.139 27.21L55.8556 28.9604H54.8262L55.3956 25.4061Z" fill="#EDD0C6"/>
<path d="M58.048 25.4062H59.0774L58.504 28.9567H57.4746L58.048 25.4062ZM58.1706 24.2936C58.2033 24.1431 58.286 24.0077 58.4054 23.9089C58.5248 23.8101 58.6741 23.7536 58.8296 23.7484C58.8996 23.7457 58.9693 23.7586 59.0335 23.7862C59.0978 23.8137 59.155 23.8552 59.2009 23.9075C59.2468 23.9598 59.2803 24.0217 59.2988 24.0885C59.3174 24.1553 59.3205 24.2254 59.3081 24.2936C59.2807 24.4475 59.2011 24.5875 59.0825 24.6907C58.9639 24.7938 58.8133 24.8539 58.6556 24.861C58.5838 24.8628 58.5125 24.8487 58.4469 24.8197C58.3813 24.7907 58.3231 24.7475 58.2766 24.6934C58.2301 24.6392 58.1964 24.5754 58.1781 24.5067C58.1597 24.438 58.1571 24.3661 58.1706 24.2962V24.2936Z" fill="#EDD0C6"/>
<path d="M62.817 27.4564H60.02C60.0238 27.5598 60.0482 27.6614 60.0918 27.7554C60.1355 27.8494 60.1975 27.9338 60.2744 28.0039C60.3512 28.0741 60.4413 28.1284 60.5395 28.1638C60.6377 28.1992 60.7421 28.215 60.8465 28.2103C61.0153 28.214 61.1831 28.1827 61.339 28.1184C61.495 28.0542 61.6356 27.9584 61.752 27.8373L62.3609 28.359C61.9405 28.8325 61.404 29.0542 60.6646 29.0477C59.6207 29.0399 58.8957 28.2077 59.0631 27.189C59.2305 26.1703 60.0411 25.2964 61.259 25.2964C62.3596 25.2912 63.1149 26.1729 62.817 27.4564ZM61.8943 26.7821C61.8763 26.5976 61.7873 26.427 61.6457 26.3056C61.5042 26.1842 61.3209 26.1213 61.1338 26.1299C60.9258 26.1354 60.7238 26.1997 60.5517 26.3153C60.3795 26.4309 60.2444 26.5929 60.1624 26.7821H61.8943Z" fill="#EDD0C6"/>
<path d="M63.4561 25.4063H64.4855L64.3985 25.928C64.5365 25.7475 64.7163 25.6025 64.9227 25.5051C65.1292 25.4078 65.3563 25.3609 65.5848 25.3685C66.3533 25.3685 67.0202 25.9919 66.8383 27.1111L66.5483 28.9554H65.5202L65.8023 27.1906C65.9038 26.5515 65.6362 26.2215 65.1723 26.2215C64.6648 26.2215 64.3089 26.5802 64.2074 27.1619L63.9175 28.9554H62.8867L63.4561 25.4063Z" fill="#EDD0C6"/>
<path d="M66.9854 27.1842C67.0734 26.6739 67.339 26.2101 67.7362 25.8733C68.1334 25.5364 68.6372 25.3477 69.1603 25.3398C69.7257 25.3398 70.3057 25.619 70.5587 26.1225L69.6677 26.7172C69.6114 26.5925 69.5184 26.4874 69.4008 26.4157C69.2833 26.3441 69.1466 26.3091 69.0087 26.3155C68.7641 26.3229 68.5297 26.4143 68.3458 26.574C68.1618 26.7337 68.0397 26.9517 68.0003 27.1907C67.9761 27.2968 67.9768 27.407 68.0023 27.5128C68.0278 27.6186 68.0774 27.7172 68.1474 27.8011C68.2174 27.885 68.3059 27.9518 68.4061 27.9966C68.5062 28.0414 68.6154 28.0629 68.7253 28.0594C68.8817 28.0584 69.0358 28.0216 69.1755 27.9519C69.3152 27.8822 69.4368 27.7815 69.5306 27.6577L70.2187 28.2525C70.0204 28.4975 69.7688 28.6952 69.4826 28.8307C69.1964 28.9662 68.8831 29.036 68.5658 29.0351C68.3321 29.0369 68.1008 28.9878 67.8885 28.8912C67.6761 28.7947 67.4878 28.6531 67.337 28.4764C67.1861 28.2997 67.0764 28.0924 67.0157 27.8691C66.9549 27.6457 66.9446 27.4119 66.9854 27.1842Z" fill="#EDD0C6"/>
<path d="M74.1344 27.4564H71.3361C71.3457 27.6645 71.4379 27.8604 71.5926 28.0016C71.7474 28.1427 71.9522 28.2178 72.1625 28.2103C72.3314 28.2141 72.4992 28.1829 72.6552 28.1187C72.8112 28.0544 72.9518 27.9586 73.068 27.8373L73.677 28.359C73.2565 28.8325 72.7214 29.0542 71.9819 29.0477C70.938 29.0399 70.2131 28.2077 70.3792 27.189C70.5452 26.1703 71.3585 25.2964 72.5751 25.2964C73.6704 25.2912 74.4309 26.1729 74.1344 27.4564ZM73.2117 26.7821C73.1937 26.5976 73.1047 26.427 72.9631 26.3056C72.8216 26.1842 72.6383 26.1213 72.4512 26.1299C72.2432 26.1352 72.0411 26.1995 71.8689 26.3151C71.6967 26.4307 71.5617 26.5928 71.4798 26.7821H73.2117Z" fill="#EDD0C6"/>
<path d="M5.04906 10.9541H9.01384C10.2621 10.9541 11.538 10.9541 12.2708 11.7563C12.5239 12.0406 12.8508 12.5715 12.6662 13.4389C12.2919 15.1776 10.5942 15.5441 10.0749 15.6667L10.067 15.6928C10.6614 15.8011 12.3644 16.1128 11.9334 18.1228C11.7686 18.8819 11.2875 19.778 10.0802 20.3506C9.21023 20.7563 8.20981 20.7563 7.3122 20.7563H2.9375L5.04906 10.9541ZM6.00071 18.9641H7.52705C7.84207 18.9641 8.94003 18.9641 9.18651 17.8241C9.43958 16.6424 8.31526 16.6424 7.9462 16.6424H6.49895L6.00071 18.9641ZM6.85878 14.905H8.14786C8.5881 14.905 8.87544 14.905 9.1351 14.7824C9.31914 14.6862 9.47959 14.5512 9.60508 14.3868C9.73058 14.2225 9.81807 14.033 9.86136 13.8315C9.92595 13.5328 9.89168 13.1793 9.66497 12.9628C9.4119 12.7319 9.11006 12.7319 8.8214 12.7319H7.32802L6.85878 14.905Z" fill="#EDD0C6"/>
<path d="M14.7847 10.9829H22.2186L21.8166 12.8546H17.0966L16.659 14.8907H21.1035L20.7002 16.7651H16.2556L15.8049 18.852H20.633L20.223 20.7525H12.6797L14.7847 10.9829Z" fill="#EDD0C6"/>
<path d="M23.607 10.9541H28.1899C29.9733 10.9541 30.6218 11.0624 31.0897 11.6611C31.3243 11.9598 31.5932 12.5037 31.3652 13.5615C31.1371 14.6193 30.5954 15.0941 30.0669 15.3876C29.5663 15.6583 29.0167 15.8289 28.4496 15.8898L28.4404 15.9445C30.3476 15.998 30.2764 16.8406 30.171 18.3458C30.1249 19.0124 30.0392 20.0702 30.117 20.7628H27.1368C27.1025 20.1654 27.1935 19.4193 27.2857 18.5454C27.4175 17.3715 27.4676 16.9306 26.2313 16.9306H25.0793L24.2541 20.7589H21.498L23.607 10.9541ZM25.4523 15.1632H26.4817C27.0841 15.1632 27.3859 15.1632 27.6377 15.0811C28.2822 14.8906 28.5379 14.2815 28.6038 13.9684C28.8674 12.7606 27.7945 12.7606 26.9984 12.7606H25.9795L25.4523 15.1632Z" fill="#EDD0C6"/>
<path d="M33.2684 10.9541H37.0513L38.8255 18.2584L40.3716 10.9541H42.7705L40.6615 20.7563H36.9604L35.1862 13.1415L33.5729 20.7563H31.1582L33.2684 10.9541Z" fill="#EDD0C6"/>
<path d="M47.5249 10.9541H50.8715L52.6707 20.7563H49.5745L49.3109 18.788H45.3435L44.2495 20.7563H41.5039L47.5249 10.9541ZM49.0657 16.9841L48.6703 12.8702H48.6294L46.3729 16.9841H49.0657Z" fill="#EDD0C6"/>
<path d="M55.5497 10.9541H60.1313C61.9147 10.9541 62.5632 11.0624 63.0245 11.6611C63.2618 11.9598 63.5293 12.5037 63.3026 13.5615C63.0759 14.6193 62.5329 15.0941 62.0043 15.3876C61.504 15.6578 60.955 15.8284 60.3884 15.8898L60.3752 15.9445C62.2851 15.998 62.2126 16.8406 62.1085 18.3458C62.061 19.0124 61.9701 20.0702 62.0544 20.7628H59.0782C59.0426 20.1654 59.1322 19.4193 59.2245 18.5454C59.3563 17.3715 59.4077 16.9306 58.17 16.9306H57.0207L56.1969 20.7589H53.4395L55.5497 10.9541ZM57.4016 15.1658H58.4297C59.0347 15.1658 59.3365 15.1658 59.587 15.0837C60.2302 14.8932 60.4859 14.2841 60.5531 13.9711C60.8167 12.7632 59.7438 12.7632 58.9477 12.7632H57.9183L57.4016 15.1658Z" fill="#EDD0C6"/>
<path d="M65.2913 10.9541H69.4761C70.6624 10.9541 72.1953 11.0767 73.0745 11.7693C74.328 12.7606 74.3781 14.378 74.0657 15.8271C73.5978 18.0015 72.5525 19.6019 70.3843 20.3754C69.2863 20.7563 68.0803 20.7563 67.3936 20.7563H63.1797L65.2913 10.9541ZM66.3984 18.8689H67.5847C69.4116 18.8558 70.7481 18.0863 71.2345 15.8011C71.8751 12.8284 69.6264 12.8284 68.7881 12.8284L67.7073 12.8141L66.3984 18.8689Z" fill="#EDD0C6"/>
<path d="M12.2281 0.271484H16.811C18.5944 0.271484 19.2429 0.379745 19.7029 0.977136C19.9401 1.27453 20.209 1.81844 19.981 2.87757C19.753 3.9367 19.2112 4.41148 18.6827 4.69583C18.1824 4.96644 17.6334 5.13749 17.0667 5.19931L17.0562 5.25409C18.9621 5.30757 18.8909 6.14757 18.7868 7.6554C18.7394 8.32061 18.655 9.37975 18.7328 10.071H15.7566C15.721 9.47496 15.8132 8.72757 15.9029 7.85366C16.0347 6.67975 16.0848 6.23757 14.8484 6.23757H13.6951L12.8713 10.0658H10.1191L12.2281 0.271484ZM14.0734 4.47931H15.1041C15.7065 4.47931 16.0083 4.47931 16.2601 4.39714C16.9033 4.20801 17.159 3.59757 17.2262 3.28453C17.4898 2.0767 16.4156 2.0767 15.6195 2.0767H14.5914L14.0734 4.47931Z" fill="#EDD0C6"/>
<path d="M22.6388 1.35783C24.1572 0.106956 26.0737 0 26.8012 0C30.7555 0 31.2168 2.80826 30.7028 5.19913C29.8592 9.11217 26.8052 10.303 24.4445 10.303C21.8084 10.303 19.6652 8.86826 20.4521 5.21609C20.5918 4.5587 21.123 2.60478 22.6388 1.35783ZM24.9019 8.30609C26.8645 8.30609 27.5789 6.51522 27.8702 5.15739C28.1615 3.79956 27.9836 3.10826 27.7753 2.67913C27.4932 2.13652 26.8843 1.97348 26.2806 1.97348C24.4696 1.97348 23.6444 3.52043 23.2807 5.20435C22.9485 6.76043 23.0803 8.30609 24.9019 8.30609Z" fill="#EDD0C6"/>
<path d="M32.9671 0.271484H36.9214C38.1683 0.271484 39.4442 0.271484 40.1783 1.07235C40.4327 1.35801 40.757 1.88627 40.5738 2.75496C40.1981 4.49366 38.5031 4.86148 37.9758 4.98148V5.00757C38.5703 5.11714 40.2732 5.42888 39.8409 7.43757C39.6761 8.19801 39.195 9.0954 37.989 9.6654C37.1178 10.071 36.1173 10.071 35.2276 10.071H30.8477L32.9671 0.271484ZM33.9161 8.28018H35.4319C35.747 8.28018 36.8462 8.28018 37.0914 7.14018C37.3445 5.96627 36.2201 5.96627 35.8498 5.96627H34.417L33.9161 8.28018ZM34.7768 4.22105H36.0659C36.5062 4.22105 36.7935 4.22105 37.0518 4.09844C37.236 4.00268 37.3965 3.86795 37.522 3.70383C37.6475 3.53971 37.735 3.35023 37.7781 3.14888C37.844 2.85018 37.8084 2.4967 37.5817 2.28018C37.3286 2.04931 37.0268 2.04931 36.7395 2.04931H35.2369L34.7768 4.22105Z" fill="#EDD0C6"/>
<path d="M42.6935 0.295898H50.1288L49.7268 2.17025H45.0067L44.5665 4.20894H49.011L48.6064 6.08068H44.1711L43.7229 8.16764H48.5497L48.1411 10.0668H40.5898L42.6935 0.295898Z" fill="#EDD0C6"/>
<path d="M51.5204 0.271484H56.102C57.8854 0.271484 58.5339 0.379745 59.0018 0.977136C59.2404 1.27453 59.5066 1.81844 59.2786 2.87757C59.0506 3.9367 58.5102 4.41148 57.9816 4.69583C57.4809 4.96651 56.9315 5.13755 56.3643 5.19931L56.3525 5.25409C58.261 5.30757 58.1886 6.14757 58.0844 7.6554C58.0383 8.32061 57.9526 9.37975 58.0317 10.071H55.0476C55.012 9.47496 55.1042 8.72757 55.1952 7.85366C55.327 6.67975 55.3784 6.23757 54.1407 6.23757H52.9887L52.1636 10.0658H49.4102L51.5204 0.271484ZM53.3657 4.47931H54.3964C54.9975 4.47931 55.2993 4.47931 55.5511 4.39714C56.1956 4.20801 56.45 3.59757 56.5172 3.28453C56.7808 2.0767 55.7079 2.0767 54.9118 2.0767H53.8837L53.3657 4.47931Z" fill="#EDD0C6"/>
<path d="M62.9969 2.21235H59.9785L60.3963 0.271484H69.2723L68.8545 2.21235H65.7675L64.0725 10.071H61.3045L62.9969 2.21235Z" fill="#EDD0C6"/>
<path d="M3.08532 26.7104L2.92188 27.6235H16.7287L16.8856 26.7104H3.08532Z" fill="#EDD0C6"/>
</g>
<defs>
<clipPath id="clip0_1887_5137">
<rect width="77" height="30" fill="white"/>
</clipPath>
</defs>
</svg>
