<svg width="66" height="30" viewBox="0 0 66 30" fill="none" xmlns="http://www.w3.org/2000/svg">
<g clip-path="url(#clip0_1879_4967)">
<path d="M2.14987 23.0932C1.76654 23.0932 1.39987 23.052 1.11654 22.9777L1.14987 22.4582C1.44987 22.5571 1.84154 22.6314 2.19987 22.6314C2.86654 22.6314 3.42487 22.384 3.42487 21.7489C3.42487 20.6356 1.0332 21.0644 1.0332 19.5799C1.0332 18.8377 1.69154 18.2852 2.81654 18.2852C3.1332 18.2852 3.4332 18.3181 3.74154 18.3759L3.7082 18.8542C3.41654 18.78 3.07487 18.7305 2.77487 18.7305C2.02487 18.7305 1.62487 19.0521 1.62487 19.5305C1.62487 20.6108 4.01654 20.215 4.01654 21.683C4.0332 22.5077 3.31654 23.0932 2.14987 23.0932Z" fill="#EDD0C6"/>
<path d="M7.52643 21.2791C7.52643 22.2275 6.98477 22.6481 6.38477 22.6481C5.6431 22.6481 5.22643 22.1615 5.22643 21.2791C5.22643 20.3554 5.7931 19.9431 6.38477 19.9431C7.1431 19.9513 7.52643 20.4461 7.52643 21.2791ZM8.12643 21.2461C8.12643 19.9843 7.3681 19.5225 6.4431 19.5225C5.30977 19.5225 4.63477 20.3389 4.63477 21.3286C4.63477 22.5409 5.2931 23.1017 6.30977 23.1017C7.42643 23.0934 8.12643 22.277 8.12643 21.2461Z" fill="#EDD0C6"/>
<path d="M10.2764 23.077C9.42643 23.077 8.63477 22.7389 8.63477 21.4276C8.63477 20.2977 9.25977 19.5308 10.4931 19.5308C10.8098 19.5308 11.1098 19.572 11.3848 19.6462L11.3264 20.0998C11.0764 20.0091 10.7764 19.9514 10.4598 19.9514C9.6431 19.9514 9.23477 20.4957 9.23477 21.3286C9.23477 22.0379 9.47643 22.6234 10.3931 22.6234C10.7264 22.6234 11.0931 22.5492 11.3431 22.4255L11.4014 22.8791C11.1514 22.978 10.7348 23.077 10.2764 23.077Z" fill="#EDD0C6"/>
<path d="M12.6746 18.9534C12.4579 18.9534 12.2829 18.8049 12.2829 18.5988C12.2829 18.4091 12.4579 18.2441 12.6746 18.2441C12.8996 18.2441 13.0746 18.4008 13.0746 18.5988C13.0746 18.8049 12.8996 18.9534 12.6746 18.9534ZM12.9579 23.0357H12.3913V20.0008C12.2079 19.9678 11.9496 19.943 11.7246 19.9348V19.6296C12.0579 19.5884 12.5663 19.5719 12.9579 19.5802V23.0357Z" fill="#EDD0C6"/>
<path d="M16.3923 20.809H14.4673C14.559 20.2647 14.9423 19.9101 15.4757 19.9101C16.0507 19.9183 16.4007 20.2812 16.3923 20.809ZM16.3757 18.3101L16.059 17.9473L15.0673 18.7142L15.3257 19.0111L16.3757 18.3101ZM16.984 20.941C16.984 20.1822 16.5507 19.5142 15.5007 19.5142C14.4423 19.5142 13.834 20.2812 13.834 21.3203C13.834 22.5326 14.4423 23.0934 15.5923 23.0934C16.0673 23.0934 16.4923 23.0192 16.8423 22.8873L16.7923 22.4419C16.509 22.5739 16.084 22.6646 15.6923 22.6646C14.8423 22.6646 14.3923 22.2357 14.434 21.1966H16.9673C16.984 21.0976 16.984 21.0069 16.984 20.941Z" fill="#EDD0C6"/>
<path d="M19.0251 23.0937C18.2585 23.0937 18.0418 22.7886 18.0418 22.0711V19.9928H17.2168V19.5805H18.0418V18.4341L18.6168 18.2939V19.5805H19.7335V19.9928H18.6168V21.8484C18.6168 22.467 18.7418 22.6319 19.1918 22.6319C19.3835 22.6319 19.5835 22.6072 19.7335 22.5659V23.0195C19.5335 23.0608 19.2668 23.0937 19.0251 23.0937Z" fill="#EDD0C6"/>
<path d="M22.759 20.809H20.834C20.9257 20.2647 21.309 19.9101 21.8423 19.9101C22.4173 19.9183 22.7757 20.2812 22.759 20.809ZM22.7423 18.3101L22.4257 17.9473L21.434 18.7142L21.6923 19.0111L22.7423 18.3101ZM23.359 20.941C23.359 20.1822 22.9257 19.5142 21.8757 19.5142C20.8173 19.5142 20.209 20.2812 20.209 21.3203C20.209 22.5326 20.8173 23.0934 21.9673 23.0934C22.4423 23.0934 22.8673 23.0192 23.2173 22.8873L23.1673 22.4419C22.884 22.5739 22.4673 22.6646 22.0673 22.6646C21.2173 22.6646 20.7673 22.2357 20.809 21.1966H23.3423C23.359 21.0976 23.359 21.0069 23.359 20.941Z" fill="#EDD0C6"/>
<path d="M28.0753 21.246C28.0753 21.8563 27.7003 22.6645 26.9419 22.6645C26.3169 22.6645 26.0253 22.1944 26.0253 21.4192C26.0253 20.3801 26.5419 19.943 27.3253 19.943C27.5669 19.943 27.8169 19.9677 28.0753 20.0254V21.246ZM29.3003 22.9861V22.681C29.0753 22.6727 28.8169 22.6398 28.6336 22.615V17.9637C28.2419 17.9472 27.7419 17.9719 27.4086 18.0131V18.31C27.6336 18.3265 27.8919 18.3513 28.0753 18.376V19.5718C27.8169 19.5471 27.5919 19.5389 27.3753 19.5389C26.1919 19.5389 25.4336 20.2316 25.4336 21.4604C25.4336 22.4666 25.8919 23.0851 26.8336 23.0851C27.4419 23.0851 27.9253 22.7635 28.1336 22.2686L28.1503 22.2769C28.1086 22.4913 28.0836 22.8212 28.0836 23.0274C28.4586 23.0521 28.9669 23.0274 29.3003 22.9861Z" fill="#EDD0C6"/>
<path d="M32.1931 20.809H30.2681C30.3514 20.2646 30.7431 19.91 31.2681 19.91C31.8514 19.9183 32.2014 20.2811 32.1931 20.809ZM32.7848 20.9409C32.7848 20.1822 32.3514 19.5142 31.3014 19.5142C30.2431 19.5142 29.6348 20.2811 29.6348 21.3203C29.6348 22.5326 30.2431 23.0934 31.3931 23.0934C31.8681 23.0934 32.2931 23.0192 32.6431 22.8872L32.5931 22.4419C32.3098 22.5738 31.8931 22.6645 31.4931 22.6645C30.6514 22.6645 30.1931 22.2357 30.2348 21.1966H32.7681C32.7848 21.0976 32.7848 21.0069 32.7848 20.9409Z" fill="#EDD0C6"/>
<path d="M36.4333 23.0933C35.6667 23.0933 35.45 22.7881 35.45 22.0706V19.9924H34.625V19.58H35.45V18.4337L36.025 18.2935V19.58H37.1417V19.9924H36.025V21.8479C36.025 22.4665 36.1417 22.6314 36.5917 22.6314C36.7833 22.6314 36.9833 22.6067 37.1333 22.5654V23.019C36.9333 23.0603 36.6667 23.0933 36.4333 23.0933Z" fill="#EDD0C6"/>
<path d="M38.6329 20.446L38.6413 20.4542C38.7996 19.9511 39.1829 19.4316 39.9829 19.5141L39.9496 20.0254C39.1246 19.9017 38.7079 20.479 38.7079 21.6418V23.0273H38.1413V19.9924C37.9579 19.9594 37.6996 19.9347 37.4746 19.9264V19.6213C37.8079 19.58 38.3163 19.5635 38.6996 19.5718C38.7163 19.8109 38.6913 20.1491 38.6329 20.446Z" fill="#EDD0C6"/>
<path d="M42.5427 21.4688C42.5427 22.0708 42.101 22.6728 41.426 22.6728C41.051 22.6728 40.8094 22.4667 40.8094 22.1533C40.8094 21.8234 41.1177 21.411 42.5427 21.411V21.4688V21.4688ZM43.7844 22.9862V22.6811C43.5677 22.6728 43.301 22.6399 43.126 22.6151V20.6441C43.126 19.9925 42.826 19.5225 41.7844 19.5225C41.276 19.5225 40.826 19.6297 40.4677 19.7781L40.5177 20.2317C40.8594 20.042 41.3177 19.9348 41.676 19.9348C42.3344 19.9348 42.5427 20.2235 42.5427 20.7513V21.0399C41.0594 21.0399 40.2344 21.543 40.2344 22.2605C40.2344 22.813 40.6677 23.1017 41.276 23.1017C41.926 23.1017 42.4094 22.7553 42.5927 22.31H42.6094C42.5677 22.5161 42.5677 22.7801 42.5677 23.044C42.9427 23.0522 43.4427 23.0275 43.7844 22.9862Z" fill="#EDD0C6"/>
<path d="M45.1583 20.3471L45.175 20.3554C45.4 19.8523 45.875 19.5142 46.5333 19.5142C47.4 19.5142 47.6833 20.0172 47.6833 20.6275V23.0357H47.1083V20.8007C47.1083 20.2564 46.95 19.943 46.3917 19.943C45.7167 19.943 45.2333 20.5533 45.2333 21.3698V23.0357H44.6667V20.0007C44.4833 19.9678 44.225 19.943 44 19.9348V19.6296C44.3417 19.5884 44.8417 19.5719 45.225 19.5801C45.225 19.8028 45.2 20.1409 45.1583 20.3471Z" fill="#EDD0C6"/>
<path d="M49.4833 23.0934C49.2 23.0934 48.9083 23.0686 48.6833 23.0274L48.6917 22.5491C48.9417 22.6068 49.2417 22.6563 49.5417 22.6563C50.0917 22.6563 50.475 22.4336 50.475 22.0708C50.475 21.2378 48.625 21.7574 48.625 20.5286C48.625 19.9513 49.1417 19.5142 50.1083 19.5142C50.3417 19.5142 50.6083 19.5471 50.85 19.5884L50.8417 20.042C50.5917 19.9595 50.3167 19.9265 50.0583 19.9265C49.5 19.9265 49.225 20.1327 49.225 20.4708C49.225 21.2955 51.0833 20.8254 51.0833 21.9965C51.0667 22.6151 50.475 23.0934 49.4833 23.0934Z" fill="#EDD0C6"/>
<path d="M54.8165 21.1966C54.8165 22.2357 54.2999 22.6728 53.5165 22.6728C53.2249 22.6728 52.9999 22.6399 52.7665 22.5821V21.3698C52.7665 20.7595 53.1415 19.9513 53.8999 19.9513C54.5249 19.9513 54.8165 20.4131 54.8165 21.1966ZM52.2082 20.0008V24.7676H52.7665V23.0275C53.0249 23.0687 53.2165 23.0769 53.4749 23.0769C54.6665 23.0769 55.4165 22.3842 55.4165 21.1554C55.4165 20.0833 54.9082 19.5225 54.0165 19.5225C53.4082 19.5225 52.9249 19.8441 52.7082 20.3389L52.6915 20.3307C52.7415 20.1327 52.7582 19.7864 52.7582 19.5802C52.3749 19.5637 51.8665 19.5884 51.5332 19.6297V19.9348C51.7665 19.9431 52.0249 19.9678 52.2082 20.0008Z" fill="#EDD0C6"/>
<path d="M58.8355 21.2791C58.8355 22.2275 58.2939 22.6481 57.7022 22.6481C56.9605 22.6481 56.5439 22.1615 56.5439 21.2791C56.5439 20.3554 57.1105 19.9431 57.7022 19.9431C58.4522 19.9513 58.8355 20.4461 58.8355 21.2791ZM59.4272 21.2461C59.4272 19.9843 58.6689 19.5225 57.7439 19.5225C56.6022 19.5225 55.9355 20.3389 55.9355 21.3286C55.9355 22.5409 56.5939 23.1017 57.6022 23.1017C58.7355 23.0934 59.4272 22.277 59.4272 21.2461Z" fill="#EDD0C6"/>
<path d="M60.9503 20.446L60.9669 20.4542C61.1253 19.9511 61.5086 19.4316 62.3086 19.5141L62.2753 20.0254C61.4419 19.9017 61.0419 20.479 61.0419 21.6418V23.0273H60.4753V19.9924C60.2919 19.9594 60.0336 19.9347 59.8086 19.9264V19.6213C60.1419 19.58 60.6419 19.5635 61.0336 19.5718C61.0419 19.8109 61.0169 20.1491 60.9503 20.446Z" fill="#EDD0C6"/>
<path d="M64.3025 23.0933C63.5358 23.0933 63.3191 22.7881 63.3191 22.0706V19.9924H62.4941V19.58H63.3191V18.4337L63.8941 18.2935V19.58H65.0025V19.9924H63.8858V21.8479C63.8858 22.4665 64.0108 22.6314 64.4608 22.6314C64.6525 22.6314 64.8525 22.6067 65.0025 22.5654V23.019C64.8025 23.0603 64.5358 23.0933 64.3025 23.0933Z" fill="#EDD0C6"/>
<path d="M3.60065 27.7201C3.60065 28.3304 3.22565 29.1386 2.46732 29.1386C1.84232 29.1386 1.55065 28.6768 1.55065 27.8933C1.55065 26.8542 2.06732 26.4171 2.85065 26.4171C3.09232 26.4171 3.34232 26.4418 3.60065 26.4996V27.7201ZM4.83398 29.4603V29.1634C4.60898 29.1469 4.35065 29.1221 4.16732 29.0891V24.4378C3.77565 24.4213 3.27565 24.446 2.94232 24.4873V24.7842C3.16732 24.8007 3.42565 24.8254 3.60898 24.8584V26.0542C3.35065 26.0295 3.12565 26.0212 2.90898 26.0212C1.72565 26.0212 0.958984 26.714 0.958984 27.9428C0.958984 28.9489 1.41732 29.5757 2.35065 29.5757C2.96732 29.5757 3.44232 29.2541 3.65898 28.7593H3.67565C3.63398 28.9737 3.60898 29.3036 3.60898 29.518C3.99232 29.518 4.49232 29.5015 4.83398 29.4603Z" fill="#EDD0C6"/>
<path d="M7.71654 27.2831H5.79154C5.8832 26.747 6.26654 26.3924 6.79987 26.3924C7.37487 26.3841 7.7332 26.747 7.71654 27.2831ZM8.3082 27.415C8.3082 26.648 7.87487 25.9883 6.82487 25.9883C5.77487 25.9883 5.1582 26.7635 5.1582 27.7944C5.1582 28.9985 5.76654 29.5593 6.91654 29.5593C7.39154 29.5593 7.81654 29.485 8.16654 29.3531L8.11654 28.9077C7.8332 29.0397 7.41654 29.1304 7.01654 29.1304C6.16654 29.1304 5.71654 28.7016 5.7582 27.6707H8.29154C8.3082 27.5635 8.3082 27.4728 8.3082 27.415Z" fill="#EDD0C6"/>
<path d="M11.5757 29.5673C11.1923 29.5673 10.8257 29.5178 10.5423 29.4519L10.5757 28.9323C10.8757 29.0313 11.2673 29.1055 11.6257 29.1055C12.2923 29.1055 12.8507 28.8663 12.8507 28.223C12.8507 27.1097 10.459 27.5385 10.459 26.0541C10.459 25.3118 11.1173 24.7593 12.2423 24.7593C12.5673 24.7593 12.859 24.7923 13.1673 24.85L13.134 25.3283C12.8423 25.2541 12.5007 25.2046 12.2007 25.2046C11.4507 25.2046 11.059 25.5263 11.059 26.0046C11.059 27.085 13.4507 26.6891 13.4507 28.1571C13.459 28.9818 12.7507 29.5673 11.5757 29.5673Z" fill="#EDD0C6"/>
<path d="M13.834 24.7757V24.4788C14.1673 24.4376 14.6757 24.4211 15.059 24.4293V26.1117C15.059 26.3426 15.0507 26.623 15.0007 26.8045H15.0173C15.2423 26.3014 15.7173 25.9715 16.3673 25.9715C17.234 25.9715 17.509 26.4746 17.509 27.0766V29.493H16.934V27.2581C16.934 26.7137 16.7757 26.4004 16.2173 26.4004C15.534 26.4004 15.0507 27.0189 15.0507 27.8354V29.493H14.5007V24.8417C14.3173 24.8252 14.059 24.7922 13.834 24.7757Z" fill="#EDD0C6"/>
<path d="M20.9406 27.2831H19.0156C19.1073 26.747 19.4906 26.3924 20.024 26.3924C20.6073 26.3841 20.9573 26.747 20.9406 27.2831ZM21.5406 27.415C21.5406 26.648 21.1073 25.9883 20.0573 25.9883C19.0073 25.9883 18.3906 26.7635 18.3906 27.7944C18.3906 28.9985 18.999 29.5593 20.149 29.5593C20.624 29.5593 21.049 29.485 21.399 29.3531L21.349 28.9077C21.0656 29.0397 20.649 29.1304 20.249 29.1304C19.4073 29.1304 18.9573 28.7016 18.9906 27.6707H21.524C21.5406 27.5635 21.5406 27.4728 21.5406 27.415Z" fill="#EDD0C6"/>
<path d="M23.1104 26.9203L23.1271 26.9368C23.2771 26.4254 23.6688 25.9141 24.4688 25.9966L24.4354 26.5079C23.6104 26.3842 23.2021 26.9698 23.2021 28.1243V29.5098H22.6354V26.4667C22.4521 26.4419 22.1938 26.4089 21.9688 26.4007V26.1038C22.3021 26.0626 22.8104 26.0378 23.2021 26.0543C23.2021 26.2852 23.1771 26.6234 23.1104 26.9203Z" fill="#EDD0C6"/>
<path d="M27.8668 27.6624C27.8668 28.7098 27.3501 29.1304 26.5668 29.1304C26.2751 29.1304 26.0418 29.1056 25.8168 29.0397V27.8356C25.8168 27.217 26.1918 26.4171 26.9501 26.4171C27.5751 26.4171 27.8668 26.8872 27.8668 27.6624ZM25.8168 24.4378C25.4251 24.4213 24.9251 24.446 24.5918 24.4873V24.7842C24.8085 24.8007 25.0751 24.8254 25.2585 24.8584V29.419C25.6418 29.518 26.0085 29.551 26.5168 29.551C27.7085 29.551 28.4751 28.8582 28.4751 27.6294C28.4751 26.5573 27.9585 25.9965 27.0668 25.9965C26.4835 25.9965 25.9835 26.3016 25.7751 26.8294L25.7585 26.8212C25.8001 26.648 25.8168 26.3841 25.8168 26.1944V24.4378V24.4378Z" fill="#EDD0C6"/>
<path d="M30.0167 26.9203L30.0333 26.9368C30.1917 26.4254 30.575 25.9141 31.375 25.9966L31.3417 26.5079C30.5083 26.3842 30.1083 26.9698 30.1083 28.1243V29.5098H29.5417V26.4667C29.3583 26.4419 29.1 26.4089 28.875 26.4007V26.1038C29.2083 26.0626 29.7167 26.0378 30.1 26.0543C30.1083 26.2852 30.075 26.6234 30.0167 26.9203Z" fill="#EDD0C6"/>
<path d="M34.5172 27.7532C34.5172 28.7098 33.9755 29.1222 33.3755 29.1222C32.6339 29.1222 32.2172 28.6356 32.2172 27.7532C32.2172 26.8295 32.7839 26.4171 33.3755 26.4171C34.1339 26.4171 34.5172 26.9202 34.5172 27.7532ZM35.1089 27.7202C35.1089 26.4584 34.3505 25.9883 33.4255 25.9883C32.2922 25.9883 31.6172 26.813 31.6172 27.7944C31.6172 28.9985 32.2755 29.5593 33.2922 29.5593C34.4172 29.5675 35.1089 28.7511 35.1089 27.7202Z" fill="#EDD0C6"/>
<path d="M38.4927 27.7532C38.4927 28.7098 37.951 29.1222 37.3594 29.1222C36.6177 29.1222 36.201 28.6356 36.201 27.7532C36.201 26.8295 36.7677 26.4171 37.3594 26.4171C38.1177 26.4171 38.4927 26.9202 38.4927 27.7532ZM39.0927 27.7202C39.0927 26.4584 38.3344 25.9883 37.4177 25.9883C36.276 25.9883 35.6094 26.813 35.6094 27.7944C35.6094 28.9985 36.2677 29.5593 37.276 29.5593C38.401 29.5675 39.0927 28.7511 39.0927 27.7202Z" fill="#EDD0C6"/>
<path d="M42.0927 29.51L40.5927 27.6957V29.51H40.026V24.8587C39.8427 24.834 39.5927 24.801 39.3594 24.7845V24.4876C39.6927 24.4463 40.201 24.4298 40.5844 24.4381V27.5967L42.0094 26.0463H42.7094L41.2094 27.6215L42.8344 29.5018H42.0927V29.51Z" fill="#EDD0C6"/>
<path d="M45.6516 27.2831H43.7266C43.8182 26.747 44.2016 26.3924 44.7349 26.3924C45.3099 26.3841 45.6682 26.747 45.6516 27.2831ZM46.2432 27.415C46.2432 26.648 45.8099 25.9883 44.7599 25.9883C43.7099 25.9883 43.1016 26.7635 43.1016 27.7944C43.1016 28.9985 43.7182 29.5593 44.8599 29.5593C45.3349 29.5593 45.7599 29.485 46.1099 29.3531L46.0516 28.9077C45.7682 29.0397 45.3516 29.1304 44.9516 29.1304C44.1016 29.1304 43.6516 28.7016 43.6932 27.6707H46.2266C46.2432 27.5635 46.2432 27.4728 46.2432 27.415Z" fill="#EDD0C6"/>
<path d="M48.2259 13.4855C48.2592 13.4525 48.3342 13.3618 48.5426 13.1556C48.7676 12.9165 49.1176 12.5454 49.5259 12.1165C49.0926 11.1928 48.8509 10.1784 48.8509 9.13107C48.8509 8.18265 49.0426 7.26723 49.3926 6.40953C49.0009 6.06316 48.6176 5.73327 48.2759 5.46112C48.1509 5.36215 48.0426 5.27144 47.9592 5.18896C47.3509 6.40128 47.0176 7.73731 47.0176 9.13107C47.0176 10.698 47.4342 12.199 48.1926 13.5268C48.2092 13.5103 48.2176 13.4938 48.2259 13.4855Z" fill="#EDD0C6"/>
<path d="M62.376 2.8302C60.6844 1.14779 58.4177 0.224121 56.0177 0.224121C53.726 0.224121 51.5844 1.06532 49.9177 2.59928C50.151 2.70649 50.4094 2.93741 50.8344 3.3745C50.9344 3.48172 51.0927 3.63841 51.276 3.82809C52.5844 2.6735 54.251 2.03848 56.026 2.03848C57.9427 2.03848 59.7427 2.77247 61.0927 4.11674C62.451 5.45277 63.1927 7.23414 63.1927 9.13096C63.1927 11.0278 62.4427 12.8092 61.0927 14.1452C59.7344 15.4895 57.9344 16.2234 56.026 16.2234C54.1094 16.2234 52.3094 15.4895 50.9594 14.1452C50.8927 14.0792 50.8344 14.005 50.7677 13.939C50.2844 14.3679 49.9344 14.673 49.8427 14.7637C49.6927 14.8792 49.5344 15.0111 49.3594 15.0936C49.4594 15.2008 49.5594 15.3163 49.6594 15.4235C51.3594 17.1059 53.6177 18.0296 56.0177 18.0296C58.4177 18.0296 60.6844 17.1059 62.376 15.4235C64.076 13.7411 65.0094 11.5061 65.0094 9.13096C65.0177 6.74756 64.0844 4.5126 62.376 2.8302Z" fill="#EDD0C6"/>
<path d="M49.3523 3.34967C49.4107 3.25896 49.5357 3.20947 49.6023 3.20947C49.669 3.20947 49.8523 3.34967 50.3273 3.8445C51.0523 4.59498 54.1273 7.65465 54.7607 8.23194C55.169 8.60306 55.3273 8.75151 55.3273 8.9247C55.3273 9.01541 55.169 9.22159 54.7273 9.55972C54.0607 10.0793 49.694 13.9719 49.4023 14.2276C49.1523 14.4337 48.994 14.5492 48.8357 14.5492C48.7107 14.5492 48.5523 14.4337 48.5523 14.3183C48.5523 14.1781 48.644 14.0296 48.744 13.9472C48.9023 13.774 52.2607 10.2607 53.2107 9.07314C52.7357 8.55358 50.269 6.18667 48.719 4.94961C48.369 4.66096 48.2773 4.57849 48.2773 4.51251C48.2773 4.45478 48.3357 4.37231 48.4023 4.30633L49.3523 3.34967ZM55.269 3.34967C55.3357 3.25896 55.4607 3.20947 55.519 3.20947C55.5857 3.20947 55.7773 3.34967 56.244 3.8445C56.969 4.59498 60.044 7.65465 60.669 8.23194C61.0773 8.60306 61.244 8.75151 61.244 8.9247C61.244 9.01541 61.0857 9.22159 60.644 9.55972C59.9773 10.0793 55.6023 13.9719 55.319 14.2276C55.0607 14.4337 54.9023 14.5492 54.7523 14.5492C54.619 14.5492 54.469 14.4337 54.469 14.3183C54.469 14.1781 54.5607 14.0296 54.6607 13.9472C54.819 13.774 58.1773 10.2607 59.1273 9.07314C58.6523 8.55358 56.1857 6.18667 54.6357 4.94961C54.294 4.66096 54.194 4.57849 54.194 4.51251C54.194 4.45478 54.2607 4.37231 54.3273 4.30633L55.269 3.34967Z" fill="#EDD0C6"/>
</g>
<defs>
<clipPath id="clip0_1879_4967">
<rect width="66" height="30" fill="white"/>
</clipPath>
</defs>
</svg>
