<svg width="127" height="30" viewBox="0 0 127 30" fill="none" xmlns="http://www.w3.org/2000/svg">
<g clip-path="url(#clip0_1873_4683)">
<path d="M64.4654 12.4067C63.9952 11.8609 63.7601 11.0422 63.7601 9.9051V6.12994L63.0078 5.99349V5.49316H65.782V5.99349L64.8886 6.12994V10.0416C64.8886 10.9967 65.0767 11.6335 65.4058 12.0428C65.735 12.4522 66.2051 12.6796 66.8634 12.6796C67.4747 12.6796 67.9919 12.4522 68.274 11.9974C68.6031 11.5425 68.7442 10.9057 68.7442 10.087V6.12994L67.8508 5.99349V5.49316H70.2959V5.99349L69.5435 6.12994V10.0416C69.5435 11.1332 69.3084 11.9064 68.7912 12.4522C68.274 12.998 67.5687 13.2254 66.7224 13.2254C65.6879 13.2254 64.9356 12.9525 64.4654 12.4067Z" fill="#EDD0C6"/>
<path d="M71.0941 8.22218L70.3418 8.04024V7.49444L71.8464 7.3125H71.8934L72.1285 7.49444V7.94927V8.17669C72.3636 7.94927 72.7398 7.76734 73.163 7.5854C73.5862 7.40347 73.9623 7.3125 74.3855 7.3125C74.8557 7.3125 75.1848 7.40347 75.4199 7.53992C75.655 7.72185 75.8431 7.94927 75.9371 8.31314C76.0312 8.63153 76.0782 9.13185 76.0782 9.67766V12.5886L76.8305 12.6796V13.1799H74.2914V12.6796L74.9497 12.5886V9.67766C74.9497 9.26831 74.9027 8.94992 74.8557 8.7225C74.8087 8.49508 74.7146 8.31315 74.5265 8.22218C74.3855 8.13121 74.1504 8.04024 73.8212 8.04024C73.5861 8.04024 73.304 8.08573 73.0219 8.22218C72.7398 8.35863 72.4577 8.49508 72.2226 8.67702V12.5886L72.9279 12.6796V13.1799H70.3888V12.6796L71.0471 12.5886L71.0941 8.22218Z" fill="#EDD0C6"/>
<path d="M79.3241 5.17461C79.2301 5.03816 79.042 4.99268 78.8069 4.99268C78.5718 4.99268 78.3838 5.08364 78.2427 5.2201C78.1016 5.35655 78.0546 5.53848 78.0546 5.7659C78.0546 5.94784 78.1487 6.08429 78.2427 6.22074C78.3838 6.31171 78.5248 6.40268 78.7599 6.40268C78.995 6.40268 79.1831 6.31171 79.3241 6.17526C79.4652 6.0388 79.5122 5.85687 79.5122 5.62945C79.5122 5.44751 79.4182 5.31106 79.3241 5.17461ZM79.4182 12.5885V7.49429L79.1831 7.31235L77.5374 7.49429V8.0401L78.3367 8.22203H78.2897V12.5885L77.4434 12.6794V13.1798H80.2645V12.6794L79.4182 12.5885Z" fill="#EDD0C6"/>
<path d="M80.1211 7.40332H82.6131V7.90364L81.8608 8.04009L82.9423 10.9965L83.4125 12.3156L83.7886 11.042L84.8701 8.04009L84.1648 7.90364V7.40332H86.3277V7.90364L85.7634 8.04009L83.6946 13.2253H82.8012L80.6383 8.04009L80.1681 7.90364V7.40332H80.1211V7.40332Z" fill="#EDD0C6"/>
<path d="M91.1283 9.31386C91.1283 8.67709 90.9402 8.17677 90.5641 7.8129C90.1879 7.44903 89.6707 7.26709 89.0124 7.26709C88.4482 7.26709 87.978 7.40354 87.5548 7.63096C87.1317 7.85838 86.8025 8.22225 86.5674 8.67709C86.3323 9.13193 86.2383 9.67773 86.2383 10.269C86.2383 11.1787 86.4264 11.9064 86.8966 12.4523C87.3668 12.9981 88.025 13.271 88.7773 13.271C89.2005 13.271 89.5767 13.18 89.9999 13.0435C90.423 12.8616 90.7522 12.7252 90.9402 12.4977L90.7522 12.0429C90.6111 12.1793 90.376 12.3158 90.0469 12.4068C89.7177 12.4977 89.4356 12.5432 89.1535 12.5432C88.5893 12.5432 88.1661 12.3158 87.837 11.9064C87.5548 11.4971 87.3668 10.9513 87.3668 10.269H91.0343C91.0813 10.0416 91.1283 9.72322 91.1283 9.31386ZM89.9058 9.72322H87.3668C87.4138 9.04096 87.5548 8.54064 87.7899 8.26774C88.025 7.94935 88.3542 7.8129 88.7773 7.8129C89.2005 7.8129 89.4826 7.94935 89.6707 8.22225C89.8588 8.44967 89.9528 8.81354 89.9528 9.26838C89.9999 9.45032 89.9058 9.58677 89.9058 9.72322Z" fill="#EDD0C6"/>
<path d="M91.6447 12.6342L92.444 12.5887V8.22225L91.6917 8.04032V7.49451L93.1493 7.26709L93.3844 7.44903V7.63096L93.3374 8.44967H93.3844C93.4784 8.31322 93.5725 8.17677 93.7606 7.99483C93.9486 7.8129 94.1837 7.63096 94.4658 7.49451C94.748 7.35806 95.0771 7.26709 95.4062 7.26709C95.5473 7.26709 95.6884 7.26709 95.7354 7.31257V8.44967C95.6884 8.40419 95.5943 8.40419 95.5003 8.3587C95.4062 8.31322 95.2652 8.31322 95.1241 8.31322C94.5129 8.31322 93.9957 8.49515 93.4784 8.85903V12.5887L94.842 12.6797V13.18H91.5977V12.6342H91.6447Z" fill="#EDD0C6"/>
<path d="M97.3328 12.3158C97.4269 12.4068 97.5679 12.4977 97.803 12.5887C98.0381 12.6797 98.2732 12.7252 98.5553 12.7252C98.9785 12.7252 99.2606 12.6342 99.4487 12.4977C99.6368 12.3613 99.7308 12.1339 99.7308 11.861C99.7308 11.679 99.6838 11.4971 99.5427 11.3606C99.4017 11.2242 99.2606 11.0877 99.0255 10.9968C98.7904 10.9058 98.5083 10.7693 98.0851 10.5874C97.5209 10.4055 97.1447 10.1326 96.8626 9.85967C96.6275 9.58677 96.4865 9.2229 96.4865 8.76806C96.4865 8.44967 96.5805 8.22225 96.7686 7.99483C96.9567 7.76741 97.2388 7.58548 97.5679 7.44903C97.8971 7.31257 98.2732 7.26709 98.6494 7.26709C98.9785 7.26709 99.2606 7.31257 99.4957 7.35806C99.7308 7.40354 99.9189 7.44903 100.107 7.49451C100.248 7.53999 100.342 7.58548 100.389 7.58548V8.85903H99.7308L99.4957 8.0858C99.4487 7.99483 99.3547 7.94935 99.1666 7.85838C98.9785 7.8129 98.7904 7.76741 98.5553 7.76741C98.2262 7.76741 97.9911 7.85838 97.803 7.99483C97.6149 8.13128 97.5209 8.31322 97.5209 8.54064C97.5209 8.76806 97.5679 8.90451 97.662 9.04096C97.756 9.17741 97.8971 9.26838 98.0381 9.35935C98.1792 9.45032 98.4143 9.54128 98.6964 9.63225L98.9315 9.72322C99.3076 9.85967 99.6368 10.0416 99.9189 10.1781C100.154 10.3145 100.389 10.4964 100.53 10.7239C100.718 10.9513 100.765 11.2242 100.765 11.5426C100.765 12.0429 100.577 12.4523 100.154 12.7706C99.7308 13.089 99.1666 13.2255 98.4613 13.2255C98.1322 13.2255 97.756 13.18 97.3798 13.089C97.0037 12.9981 96.6746 12.9071 96.4395 12.8161V11.4971H97.1447L97.3328 12.3158Z" fill="#EDD0C6"/>
<path d="M103.254 5.17461C103.16 5.03816 102.972 4.99268 102.737 4.99268C102.502 4.99268 102.314 5.08364 102.173 5.2201C102.031 5.35655 101.984 5.53848 101.984 5.7659C101.984 5.94784 102.078 6.08429 102.173 6.22074C102.267 6.31171 102.455 6.40268 102.69 6.40268C102.925 6.40268 103.113 6.31171 103.254 6.17526C103.395 6.0388 103.442 5.85687 103.442 5.62945C103.442 5.44751 103.348 5.31106 103.254 5.17461ZM103.301 12.5885V7.49429L103.066 7.31235L101.42 7.49429V8.0401L102.22 8.22203H102.173V12.5885L101.326 12.6794V13.1798H104.147V12.6794L103.301 12.5885Z" fill="#EDD0C6"/>
<path d="M105.419 12.9977C105.231 12.8157 105.137 12.4974 105.137 12.088V8.13091H104.385V7.67607C104.432 7.67607 104.526 7.63058 104.667 7.5851C104.808 7.53962 104.949 7.49413 104.996 7.49413C105.09 7.44865 105.184 7.3122 105.278 7.13026C105.325 6.99381 105.419 6.81187 105.466 6.49349C105.56 6.22058 105.607 6.03865 105.607 5.99316H106.219V7.49413H108.005V8.17639H106.219V11.3603C106.219 11.7696 106.219 12.0425 106.266 12.179C106.313 12.3154 106.36 12.4519 106.407 12.4974C106.501 12.5428 106.642 12.5883 106.83 12.5883C107.018 12.5883 107.253 12.5428 107.488 12.4974C107.723 12.4519 107.911 12.4064 108.005 12.3609L108.146 12.8157C107.958 12.9522 107.723 13.0432 107.3 13.1796C106.924 13.3161 106.595 13.3616 106.266 13.3616C105.889 13.2706 105.654 13.1796 105.419 12.9977Z" fill="#EDD0C6"/>
<path d="M113.415 9.31386C113.415 8.67709 113.227 8.17677 112.851 7.8129C112.475 7.44903 111.958 7.26709 111.3 7.26709C110.735 7.26709 110.265 7.40354 109.842 7.63096C109.419 7.85838 109.09 8.22225 108.855 8.67709C108.619 9.13193 108.525 9.67773 108.525 10.269C108.525 11.1787 108.713 11.9064 109.184 12.4523C109.654 12.9981 110.312 13.271 111.064 13.271C111.488 13.271 111.864 13.18 112.287 13.0435C112.71 12.8616 113.039 12.7252 113.227 12.4977L113.039 12.0429C112.898 12.1793 112.663 12.3158 112.334 12.4068C112.005 12.4977 111.723 12.5432 111.441 12.5432C110.876 12.5432 110.453 12.3158 110.124 11.9064C109.842 11.4971 109.654 10.9513 109.654 10.269H113.321C113.368 10.0416 113.415 9.72322 113.415 9.31386ZM112.24 9.72322H109.701C109.748 9.04096 109.889 8.54064 110.124 8.26774C110.359 7.94935 110.688 7.8129 111.111 7.8129C111.535 7.8129 111.817 7.94935 112.005 8.22225C112.193 8.44967 112.287 8.81354 112.287 9.26838C112.287 9.45032 112.24 9.58677 112.24 9.72322Z" fill="#EDD0C6"/>
<path d="M121.406 12.634V4.85625L121.171 4.67432H121.124L119.29 4.85625V5.31109L120.372 5.44754V7.35786C120.089 7.31238 119.76 7.2669 119.431 7.2669C118.82 7.2669 118.303 7.40335 117.832 7.67625C117.362 7.94916 117.033 8.31303 116.798 8.81335C116.563 9.26819 116.422 9.81399 116.422 10.4053C116.422 11.0421 116.516 11.5879 116.704 11.9972C116.892 12.4521 117.174 12.725 117.503 12.9524C117.832 13.1798 118.209 13.2708 118.726 13.2253C119.102 13.2253 119.431 13.1343 119.76 12.9979C120.089 12.8159 120.324 12.634 120.513 12.4066V12.725C120.513 12.9524 120.513 13.0888 120.607 13.1343C120.701 13.1798 120.795 13.2253 120.983 13.2253C121.171 13.2253 121.359 13.2253 121.5 13.1798C121.641 13.1798 121.829 13.1343 122.064 13.0888V12.634C122.064 12.634 121.406 12.634 121.406 12.634ZM120.324 11.9517C120.23 12.0882 120.042 12.2246 119.807 12.3611C119.572 12.4521 119.29 12.543 119.055 12.5885C118.632 12.5885 118.256 12.4066 117.974 12.0427C117.691 11.6788 117.55 11.133 117.55 10.4053C117.55 9.54109 117.691 8.90432 118.021 8.49496C118.35 8.08561 118.773 7.85819 119.29 7.85819C119.525 7.85819 119.76 7.90367 119.948 7.94916C120.136 8.04012 120.277 8.08561 120.324 8.17657V11.9517Z" fill="#EDD0C6"/>
<path d="M127.001 9.31386C126.954 8.67709 126.766 8.17677 126.437 7.8129C126.061 7.44903 125.59 7.26709 124.932 7.26709C124.415 7.26709 123.945 7.40354 123.521 7.63096C123.145 7.85838 122.816 8.22225 122.581 8.67709C122.346 9.13193 122.252 9.67773 122.252 10.269C122.252 11.1787 122.487 11.9064 122.91 12.4523C123.38 12.9981 123.992 13.271 124.791 13.271C125.167 13.271 125.59 13.18 125.967 13.0435C126.39 12.8616 126.672 12.7252 126.86 12.4977L126.672 12.0429C126.484 12.1793 126.249 12.3158 125.967 12.4068C125.684 12.4977 125.402 12.5432 125.12 12.5432C124.603 12.5432 124.133 12.3158 123.851 11.9064C123.568 11.4971 123.38 10.9513 123.38 10.269H126.907C127.001 10.0416 127.001 9.72322 127.001 9.31386ZM125.919 9.72322H123.474C123.521 9.04096 123.663 8.54064 123.898 8.26774C124.133 7.94935 124.462 7.8129 124.838 7.8129C125.214 7.8129 125.496 7.94935 125.684 8.22225C125.872 8.44967 125.967 8.81354 125.967 9.26838C125.967 9.45032 125.919 9.58677 125.919 9.72322Z" fill="#EDD0C6"/>
<path d="M63.3848 23.186C63.5258 23.186 63.6669 23.2315 63.902 23.3225C64.2781 23.4135 64.6543 23.5044 64.9834 23.5954C65.3126 23.6409 65.6887 23.6864 66.1119 23.6864C66.7702 23.6864 67.3814 23.5499 67.8516 23.3225C68.3218 23.0951 68.698 22.7767 68.9331 22.4128C69.1682 22.0489 69.2622 21.6851 69.2622 21.2757C69.2622 20.8664 69.1682 20.5025 68.9331 20.1841C68.698 19.8657 68.4159 19.6383 68.0867 19.4564C67.7576 19.2744 67.3344 19.047 66.8172 18.8196C66.253 18.5922 65.8298 18.3648 65.5947 18.2283C65.3596 18.0919 65.1245 17.9099 64.9364 17.6825C64.7483 17.4551 64.6543 17.2277 64.6543 16.9093C64.6543 16.4999 64.7953 16.1815 65.0775 15.9541C65.3596 15.7267 65.7828 15.6357 66.347 15.6357C66.6291 15.6357 66.9112 15.6812 67.1934 15.7267C67.4284 15.8177 67.6165 15.8631 67.7106 15.9541L67.9457 17.3186H68.651L68.698 15.4538C68.6039 15.4538 68.4629 15.4083 68.3218 15.3628C67.9457 15.2719 67.6636 15.1809 67.3814 15.1354C67.0993 15.0899 66.7702 15.0444 66.394 15.0444C65.8298 15.0444 65.3126 15.1354 64.8424 15.3173C64.4192 15.4993 64.043 15.7722 63.855 16.0906C63.6199 16.409 63.5258 16.7728 63.5258 17.1822C63.5258 17.637 63.6669 18.0464 63.902 18.3648C64.1371 18.6831 64.4192 18.956 64.7483 19.138C65.0775 19.3199 65.4536 19.5473 65.9238 19.7293C66.394 19.9112 66.8172 20.0931 67.0993 20.2751C67.3814 20.4115 67.6165 20.5935 67.8046 20.8209C67.9927 21.0483 68.0867 21.2757 68.0867 21.5941C68.0867 22.049 67.9457 22.4128 67.6165 22.6857C67.2874 22.9586 66.8172 23.0951 66.2059 23.0951C65.8298 23.0951 65.5007 23.0496 65.1715 22.9586C64.8424 22.8677 64.6543 22.7767 64.5132 22.6402L64.3252 21.1848H63.5728L63.3848 23.186Z" fill="#EDD0C6"/>
<path d="M70.4363 15.9089L69.543 15.8179V15.3631L71.3297 15.1812L71.5648 15.3176V17.7282L71.5178 18.5924C71.7529 18.4105 72.082 18.1831 72.4582 18.0466C72.8814 17.8647 73.2575 17.7737 73.6807 17.7737C74.1509 17.7737 74.48 17.8647 74.7621 18.0012C74.9972 18.1831 75.1853 18.4105 75.2794 18.7744C75.3734 19.0928 75.4204 19.5931 75.4204 20.1389V23.0044L76.1727 23.0953V23.5957H73.5867V23.0953L74.292 23.0044V20.0934C74.292 19.6841 74.2449 19.3657 74.1979 19.1382C74.1509 18.9108 74.0098 18.7289 73.8688 18.6379C73.7277 18.547 73.4456 18.456 73.1635 18.456C72.8814 18.456 72.5992 18.5015 72.3171 18.6379C72.035 18.7744 71.7529 18.9108 71.5178 19.0928V23.0044L72.2701 23.0953V23.5957H69.7311V23.0953L70.3893 23.0044L70.4363 15.9089Z" fill="#EDD0C6"/>
<path d="M81.8631 19.7748C81.8161 19.138 81.628 18.6377 81.2519 18.2738C80.8757 17.91 80.3115 17.728 79.6532 17.728C79.136 17.728 78.6188 17.8645 78.1956 18.0919C77.7724 18.3193 77.4433 18.6832 77.2082 19.138C76.9731 19.5929 76.832 20.1387 76.832 20.73C76.832 21.6396 77.0671 22.3674 77.5373 22.9132C78.0075 23.459 78.6658 23.7319 79.5122 23.7319C79.9353 23.7319 80.3585 23.6409 80.7817 23.5045C81.2049 23.3225 81.534 23.1861 81.7221 22.9587L81.534 22.5038C81.3459 22.6403 81.1108 22.7767 80.7817 22.8677C80.4996 22.9587 80.1704 23.0042 79.8883 23.0042C79.2771 23.0042 78.8539 22.7767 78.5247 22.3674C78.1956 21.958 78.0075 21.4122 78.0075 20.73H81.7691C81.8161 20.5025 81.8631 20.1842 81.8631 19.7748ZM80.6876 20.1842H78.1486C78.1956 19.5019 78.3367 19.0016 78.5718 18.7287C78.8069 18.4103 79.136 18.2738 79.5592 18.2738C79.9353 18.2738 80.2645 18.4103 80.4525 18.6832C80.6406 18.9106 80.7347 19.2745 80.7347 19.7293C80.7347 19.9113 80.6876 20.0477 80.6876 20.1842Z" fill="#EDD0C6"/>
<path d="M82.7091 23.0955L83.5085 23.0501V18.6836L82.7091 18.5017V17.9559L84.2138 17.7739L84.4489 17.9559V18.1378L84.4018 18.9565H84.4489C84.5429 18.8201 84.6369 18.6836 84.825 18.5017C85.0131 18.3197 85.2482 18.1378 85.5773 18.0013C85.8594 17.8649 86.1886 17.7739 86.5647 17.7739C86.7058 17.7739 86.8469 17.7739 86.9409 17.8194V18.9565C86.8939 18.911 86.7998 18.911 86.7058 18.8655C86.6118 18.8201 86.4707 18.8201 86.3296 18.8201C85.7184 18.8201 85.1541 19.002 84.6369 19.3659V23.0955L86.0005 23.1865V23.6868H82.6621V23.0955C82.6621 23.0955 82.7091 23.0955 82.7091 23.0955Z" fill="#EDD0C6"/>
<path d="M92.8657 18.9563C92.6777 18.547 92.3955 18.2286 92.0194 18.0466C91.6902 17.8192 91.2671 17.7282 90.8439 17.7282C90.5148 17.7282 90.1386 17.7737 89.8565 17.9102C89.5273 18.0466 89.2922 18.2286 89.0571 18.4105V15.3176L88.822 15.1812L87.0823 15.3631H86.9883V15.8179L87.8817 15.9089V23.2773C87.9757 23.3682 88.2108 23.4592 88.634 23.5502C89.0571 23.6412 89.4803 23.6866 89.9975 23.6866C90.6558 23.6866 91.173 23.5502 91.6902 23.2773C92.2075 23.0044 92.5836 22.6405 92.8187 22.1402C93.0538 21.6853 93.1949 21.1395 93.1949 20.5482C93.1949 19.9115 93.1008 19.3657 92.8657 18.9563ZM91.5492 22.5495C91.22 22.9589 90.7499 23.1863 90.1856 23.1863C89.9035 23.1863 89.6684 23.1408 89.4803 23.0953C89.2922 23.0499 89.1512 22.9589 89.1042 22.8679V19.0473C89.2452 18.9108 89.4333 18.7744 89.6684 18.6379C89.9035 18.5015 90.1856 18.456 90.4207 18.5015C90.8909 18.5015 91.3141 18.6834 91.5962 19.0473C91.9253 19.4112 92.0664 19.957 92.0664 20.6847C92.0664 21.5034 91.8783 22.1402 91.5492 22.5495Z" fill="#EDD0C6"/>
<path d="M93.9923 23.0955L94.7917 23.0501V18.6836L93.9923 18.5017V17.9559L95.497 17.7739L95.7321 17.9559V18.1378L95.685 18.9565H95.7321C95.8261 18.8201 95.9201 18.6836 96.1082 18.5017C96.2963 18.3197 96.5314 18.1378 96.8605 18.0013C97.1426 17.8649 97.4718 17.7739 97.8479 17.7739C97.989 17.7739 98.1301 17.7739 98.2241 17.8194V18.9565C98.1771 18.911 98.083 18.911 97.989 18.8655C97.895 18.8201 97.7539 18.8201 97.6128 18.8201C97.0016 18.8201 96.4374 19.002 95.9201 19.3659V23.0955L97.2837 23.1865V23.6868H93.9453V23.0955C93.9453 23.0955 93.9923 23.0955 93.9923 23.0955Z" fill="#EDD0C6"/>
<path d="M103.822 18.5467C103.352 18.0009 102.646 17.728 101.753 17.728C101.236 17.728 100.766 17.8645 100.343 18.0919C99.8723 18.3193 99.5432 18.6832 99.2611 19.138C98.979 19.5929 98.8379 20.0932 98.8379 20.7754C98.8379 21.6851 99.073 22.4129 99.5432 22.9587C100.013 23.5045 100.719 23.7774 101.612 23.7774C102.129 23.7774 102.599 23.6409 103.023 23.4135C103.493 23.1861 103.822 22.8222 104.104 22.3674C104.386 21.9125 104.527 21.3667 104.527 20.73C104.48 19.8203 104.292 19.0925 103.822 18.5467ZM102.835 22.5493C102.552 22.9587 102.176 23.1406 101.659 23.1406C101.142 23.1406 100.719 22.9132 100.484 22.4584C100.248 22.0035 100.107 21.4122 100.107 20.639C100.107 19.8658 100.248 19.32 100.531 18.9106C100.813 18.5013 101.189 18.3193 101.706 18.3193C102.223 18.3193 102.646 18.5467 102.882 19.0016C103.117 19.4564 103.258 20.0477 103.258 20.8209C103.258 21.5942 103.07 22.14 102.835 22.5493Z" fill="#EDD0C6"/>
<path d="M110.402 18.5467C109.932 18.0009 109.227 17.728 108.333 17.728C107.816 17.728 107.346 17.8645 106.923 18.0919C106.452 18.3193 106.123 18.6832 105.841 19.138C105.559 19.5929 105.418 20.0932 105.418 20.7754C105.418 21.6851 105.653 22.4129 106.123 22.9587C106.593 23.5045 107.299 23.7774 108.192 23.7774C108.709 23.7774 109.18 23.6409 109.603 23.4135C110.073 23.1861 110.402 22.8222 110.684 22.3674C110.966 21.9125 111.107 21.3667 111.107 20.73C111.06 19.8203 110.872 19.0925 110.402 18.5467ZM109.415 22.5493C109.133 22.9587 108.756 23.1406 108.239 23.1406C107.722 23.1406 107.299 22.9132 107.064 22.4584C106.829 22.0035 106.687 21.4122 106.687 20.639C106.687 19.8658 106.829 19.32 107.111 18.9106C107.393 18.5013 107.769 18.3193 108.286 18.3193C108.803 18.3193 109.227 18.5467 109.462 19.0016C109.697 19.4564 109.838 20.0477 109.838 20.8209C109.838 21.5942 109.65 22.14 109.415 22.5493Z" fill="#EDD0C6"/>
<path d="M112.471 15.9089L111.625 15.8179V15.3631L113.365 15.1812L113.6 15.3176V20.3663V20.9576L116.139 18.5015L115.34 18.365V17.9102H117.973V18.365L117.126 18.5015L115.528 19.957L117.596 23.0044L118.255 23.0953V23.5957H115.622V23.0953L116.327 23.0044L114.775 20.5937L113.647 21.6399V22.1857V23.0044L114.399 23.0953V23.5957H111.813V23.0953L112.518 23.0044L112.471 15.9089Z" fill="#EDD0C6"/>
<path d="M123.381 19.7748C123.334 19.138 123.146 18.6377 122.769 18.2738C122.393 17.91 121.829 17.728 121.171 17.728C120.654 17.728 120.136 17.8645 119.713 18.0919C119.29 18.3193 118.961 18.6832 118.726 19.138C118.491 19.5929 118.35 20.1387 118.35 20.73C118.35 21.6396 118.585 22.3674 119.055 22.9132C119.525 23.459 120.23 23.7319 121.03 23.7319C121.453 23.7319 121.876 23.6409 122.299 23.5045C122.722 23.3225 123.052 23.1861 123.24 22.9587L123.052 22.5038C122.863 22.6403 122.628 22.7767 122.299 22.8677C122.017 22.9587 121.688 23.0042 121.406 23.0042C120.795 23.0042 120.371 22.7767 120.042 22.3674C119.713 21.958 119.525 21.4122 119.525 20.73H123.287C123.287 20.5025 123.381 20.1842 123.381 19.7748ZM122.205 20.1842H119.666C119.713 19.5019 119.854 19.0016 120.089 18.7287C120.324 18.4103 120.654 18.2738 121.077 18.2738C121.453 18.2738 121.782 18.4103 121.97 18.6832C122.158 18.9106 122.252 19.2745 122.252 19.7293C122.252 19.9113 122.205 20.0477 122.205 20.1842Z" fill="#EDD0C6"/>
<path d="M110.73 6.22089L111.671 4.90186H112.799L112.846 4.94734L111.483 6.22089H110.777H110.73Z" fill="#EDD0C6"/>
<path d="M44.7629 5.44734C43.4934 5.44734 42.459 5.62928 41.5186 6.03863C40.5782 6.44798 39.8729 6.99379 39.4027 7.67605C38.9325 8.26734 38.6974 8.99508 38.6504 9.72282C38.6974 8.9496 38.9325 8.26734 39.4027 7.63057C39.8729 6.94831 40.5782 6.4025 41.5186 5.99315C42.459 5.58379 43.4934 5.40186 44.7629 5.40186C45.5153 5.40186 46.2206 5.44734 46.7848 5.58379C47.396 5.67476 48.0543 5.85669 48.8066 6.03863C49.1358 6.1296 49.653 6.26605 49.653 6.26605V6.31153C49.653 6.31153 49.1358 6.17508 48.8066 6.08411C48.0543 5.90218 47.396 5.72024 46.7848 5.62927C46.2206 5.49282 45.5153 5.44734 44.7629 5.44734Z" fill="#EDD0C6"/>
<path d="M50.7814 18.9561C50.7344 19.7293 50.4993 20.457 50.0291 21.1393C49.5589 21.9125 48.8066 22.5948 47.7721 23.0951C46.7847 23.5954 45.5622 23.8683 44.1046 23.8683C43.3053 23.7319 42.553 23.6864 41.8477 23.5044C42.553 23.6409 43.3053 23.7319 44.1046 23.8228C45.5622 23.8228 46.7847 23.5499 47.7721 23.0496C48.8066 22.5493 49.5589 21.867 50.0291 21.0938C50.4522 20.4115 50.7344 19.6838 50.7814 18.9561Z" fill="#EDD0C6"/>
<path d="M33.9952 12.0427C33.619 11.315 33.0548 10.7692 32.3495 10.3598C31.6442 9.95046 30.5157 9.76853 29.5753 9.76853H28.0707V19.3201H29.6224C30.5628 19.3201 31.6912 19.1382 32.3965 18.7289C33.1018 18.3195 33.666 17.7737 34.0422 17.0459C34.4184 16.3182 34.6064 15.545 34.6064 14.6353V14.4534C34.6064 13.5437 34.3713 12.7705 33.9952 12.0427ZM33.9952 12.0427C33.619 11.315 33.0548 10.7692 32.3495 10.3598C31.6442 9.95046 30.5157 9.76853 29.5753 9.76853H28.0707V19.3201H29.6224C30.5628 19.3201 31.6912 19.1382 32.3965 18.7289C33.1018 18.3195 33.666 17.7737 34.0422 17.0459C34.4184 16.3182 34.6064 15.545 34.6064 14.6353V14.4534C34.6064 13.5437 34.3713 12.7705 33.9952 12.0427ZM0 0.444336V28.6443H56.9408V0.444336H0ZM23.5568 6.72111L22.8045 6.81208C22.1933 6.90305 21.7701 7.40337 21.7701 7.99466V16.0908C21.7701 18.5924 21.1588 20.4572 19.9363 21.6853C18.7138 22.9134 17.0681 23.5501 15.0463 23.5501C12.5542 23.5956 10.7675 22.9589 9.592 21.6853C8.41651 20.4118 7.85228 18.4559 7.85228 15.8179V7.99466C7.85228 7.40337 7.4291 6.94853 6.81784 6.81208L6.06553 6.67563V5.49305H12.1781V6.67563L11.5198 6.81208C11.0026 6.90305 10.5794 7.35788 10.5794 7.90369V16.0908C10.5794 18.274 11.0026 19.8659 11.8019 20.8211C12.6013 21.7763 13.7767 22.2766 15.2814 22.2766C16.786 22.2766 17.9145 21.7763 18.6668 20.7301C19.4191 19.684 19.7953 18.2285 19.7953 16.2272V7.99466C19.7953 7.44885 19.3721 6.94853 18.8078 6.85756L18.1966 6.72111V5.53853H23.5568C23.5568 5.53853 23.5568 6.72111 23.5568 6.72111ZM36.7223 14.6808C36.7223 15.7724 36.4872 16.7276 35.97 17.5463C35.4528 18.365 34.7475 19.0018 33.8071 19.5021C32.8667 20.0024 31.3621 20.2298 30.1396 20.2298H25.2025V19.3656C25.2025 19.3656 26.284 19.2747 26.284 18.7743C26.284 18.7743 26.284 16.0908 26.284 14.5443C26.284 12.9524 26.284 10.3143 26.284 10.3143C26.284 9.72305 25.2025 9.72305 25.2025 9.72305V8.85885H30.0455C31.268 8.85885 32.7727 9.13176 33.7131 9.58659C34.6535 10.0414 35.3588 10.7237 35.876 11.5424C36.3932 12.4066 36.6283 13.3618 36.7223 14.4534C36.7223 14.4534 36.7223 14.6808 36.7223 14.6808ZM50.7812 18.9563C50.7342 19.684 50.4991 20.4118 50.0289 21.094C49.5587 21.8672 48.8064 22.5495 47.7719 23.0498C46.7845 23.5501 45.562 23.823 44.1044 23.823C43.3051 23.7321 42.5528 23.6411 41.8475 23.5047C41.1892 23.3682 40.4369 23.1408 39.5905 22.9134C39.0733 22.7769 38.462 22.6405 38.462 22.6405L38.6501 18.274H40.2488C40.2488 18.274 40.2958 20.9121 40.672 21.4124C40.86 21.6398 41.4243 21.9127 42.0355 22.0947C42.6938 22.2766 43.3991 22.413 44.1514 22.413C45.4209 22.413 46.3613 22.1401 47.0196 21.5943C47.6779 21.0485 48.007 20.2753 48.007 19.3201C48.007 19.0018 47.96 18.6834 47.866 18.4105C47.7719 18.1376 47.6309 17.8647 47.4898 17.6372C47.1137 17.1824 46.6435 16.8185 46.0792 16.5001C45.468 16.1818 44.6686 15.8179 43.6342 15.363C42.6938 14.9537 41.8945 14.5443 41.1892 14.135C40.4839 13.7256 39.9197 13.1798 39.4024 12.4521C38.9322 11.8608 38.6971 11.133 38.6501 10.3143C38.6501 10.2234 38.6501 10.0869 38.6501 9.99595C38.6501 9.90498 38.6501 9.76853 38.6501 9.67756C38.6971 8.94982 38.9322 8.22208 39.4024 7.63079C39.8726 6.94853 40.5779 6.40272 41.5183 5.99337C42.4587 5.58401 43.4931 5.40208 44.7627 5.40208C45.515 5.40208 46.2203 5.44756 46.7845 5.58401C47.3958 5.67498 48.054 5.85692 48.8064 6.03885C49.1355 6.12982 49.6527 6.26627 49.6527 6.26627L49.5117 10.2689H48.007C48.007 10.1779 48.007 9.99595 48.007 9.72305C48.007 9.67756 48.007 9.63208 48.007 9.58659C48.007 9.54111 48.007 9.54111 48.007 9.49563C48.007 9.45014 48.007 9.40466 48.007 9.35918C48.007 9.31369 48.007 9.31369 48.007 9.26821C47.96 8.54047 47.8189 7.5853 47.5368 7.3124C47.3488 7.13047 47.0196 6.99401 46.5024 6.85756C45.9852 6.72111 45.421 6.63014 44.8097 6.63014C43.6812 6.63014 42.7879 6.85756 42.2236 7.3124C41.7064 7.72176 41.4243 8.26756 41.3302 9.04079C41.3302 9.13176 41.3302 9.26821 41.3302 9.35918C41.3302 9.67756 41.3773 9.99595 41.4713 10.2689C41.5653 10.5418 41.7064 10.8147 41.8475 11.0421C42.2236 11.4969 42.6468 11.8608 43.164 12.1337C43.6812 12.4521 44.5276 12.8614 45.7031 13.4072C46.7845 13.9076 47.6779 14.3624 48.3362 14.7718C48.9944 15.1811 49.6057 15.6814 50.0759 16.3637C50.4991 16.9095 50.7342 17.5918 50.8282 18.365C50.8282 18.456 50.8282 18.5469 50.8282 18.6379C50.7812 18.7289 50.7812 18.8653 50.7812 18.9563ZM32.3495 10.3598C31.6442 9.95046 30.5157 9.76853 29.5753 9.76853H28.0707V19.3201H29.6224C30.5628 19.3201 31.6912 19.1382 32.3965 18.7289C33.1018 18.3195 33.666 17.7737 34.0422 17.0459C34.4184 16.3182 34.6064 15.545 34.6064 14.6353V14.4534C34.6064 13.5437 34.3713 12.7705 33.9952 12.0427C33.619 11.315 33.0548 10.7692 32.3495 10.3598Z" fill="#EDD0C6"/>
<path d="M47.4901 17.6827C47.6311 17.9101 47.7722 18.1375 47.8662 18.4559C47.7722 18.183 47.6311 17.9556 47.4901 17.7737C47.1139 17.3188 46.6437 16.955 46.0795 16.6366C45.4682 16.3182 44.6689 15.9543 43.6345 15.4995C42.6941 15.0901 41.8947 14.6808 41.1895 14.2714C40.4842 13.862 39.9199 13.3162 39.4027 12.5885C38.9325 11.9972 38.6974 11.224 38.6504 10.4053C38.6974 11.224 38.9325 11.9517 39.4027 12.543C39.9199 13.2708 40.4842 13.8166 41.1895 14.2259C41.8947 14.6353 42.6941 15.0446 43.6345 15.454C44.6689 15.9088 45.4682 16.2727 46.0795 16.5911C46.6437 16.864 47.1139 17.2279 47.4901 17.6827Z" fill="#EDD0C6"/>
<path d="M41.2832 9.08594C41.3302 8.3582 41.6123 7.76691 42.1766 7.35755C42.7408 6.90271 43.6342 6.67529 44.7627 6.67529C45.3739 6.67529 45.9381 6.76626 46.4554 6.90271C46.9726 7.03916 47.3017 7.17562 47.4898 7.35755C47.7719 7.63045 47.913 8.58562 47.96 9.31336C47.913 8.58562 47.7719 7.67594 47.4898 7.40304C47.3017 7.2211 46.9726 7.08465 46.4554 6.9482C45.9381 6.81174 45.3739 6.72078 44.7627 6.72078C43.6342 6.72078 42.7408 6.9482 42.1766 7.40304C41.6594 7.81239 41.3302 8.3582 41.2832 9.08594Z" fill="#EDD0C6"/>
<path d="M49.5105 10.3599H48.0059C48.0059 10.3599 48.0059 10.3599 48.0059 10.3145H49.5105V10.3599Z" fill="#EDD0C6"/>
<path d="M50.7339 18.3647C50.6868 17.5915 50.4047 16.9547 49.9815 16.3634C49.5113 15.6811 48.9001 15.1808 48.2418 14.7715C47.5835 14.3621 46.6902 13.9073 45.6087 13.4069C44.4332 12.8611 43.5869 12.4518 43.0697 12.1334C42.5524 11.8605 42.1293 11.4966 41.7531 11.0418C41.6121 10.8144 41.471 10.5869 41.377 10.2686C41.471 10.5415 41.6121 10.7689 41.7531 10.9508C42.1293 11.4057 42.5524 11.7695 43.0697 12.0424C43.5869 12.3608 44.4332 12.7702 45.6087 13.316C46.6902 13.8163 47.5835 14.2711 48.2418 14.6805C48.9001 15.0898 49.5113 15.5902 49.9815 16.2724C50.4517 16.8637 50.7339 17.546 50.7339 18.3647Z" fill="#EDD0C6"/>
</g>
<defs>
<clipPath id="clip0_1873_4683">
<rect width="127" height="30" fill="white"/>
</clipPath>
</defs>
</svg>
